<svg xmlns="http://www.w3.org/2000/svg" viewBox="0 0 259 158"><g fill="none" fill-rule="evenodd" transform="translate(0 .005)"><path fill="#263333" fill-rule="nonzero" d="M19.51 126.144775 20.22 126.144775 20.22 133.934775 19.51 133.934775C19.31 133.044775 18.96 132.264775 18.44 131.584775 16.48 133.794775 13.98 134.894775 10.94 134.894775 7.72 134.894775 5.1 133.874775 3.06 131.844775 1.02 129.804775 1.77635684e-15 127.114775 1.77635684e-15 123.774775 1.77635684e-15 121.574775.47 119.504775 1.41 117.564775 2.35 115.624775 3.66 114.184775 5.35 113.244775 7.03 112.304775 8.88 111.834775 10.9 111.834775 12.56 111.834775 14.07 112.174775 15.42 112.864775 16.77 113.544775 17.78 114.304775 18.45 115.134775 18.92 114.204775 19.2 113.244775 19.3 112.244775L20.02 112.244775 20.22 120.674775 19.51 120.674775C19.02 117.674775 18.01 115.594775 16.5 114.424775 14.98 113.254775 13.28 112.664775 11.37 112.664775 9.04 112.664775 7.19 113.614775 5.82 115.504775 4.45 117.394775 3.76 120.104775 3.76 123.624775 3.76 126.964775 4.51 129.514775 6.01 131.294775 7.51 133.074775 9.37 133.964775 11.61 133.964775 12.8 133.964775 14.02 133.674775 15.27 133.094775 16.52 132.514775 17.5 131.534775 18.23 130.144775 18.96 128.754775 19.39 127.424775 19.52 126.134775L19.51 126.144775ZM24.15 123.224775C24.15 119.794775 25.3 117.034775 27.6 114.954775 29.9 112.874775 32.76 111.834775 36.2 111.834775 39.64 111.834775 42.56 112.864775 44.89 114.914775 47.21 116.974775 48.38 119.774775 48.38 123.334775 48.38 126.894775 47.27 129.574775 45.04 131.704775 42.81 133.834775 39.88 134.904775 36.25 134.904775 32.62 134.904775 29.82 133.834775 27.55 131.704775 25.29 129.574775 24.15 126.744775 24.15 123.224775L24.15 123.224775ZM27.91 123.334775C27.91 126.914775 28.62 129.594775 30.05 131.394775 31.48 133.184775 33.62 134.084775 36.47 134.084775 38.98 134.084775 40.96 133.184775 42.41 131.394775 43.87 129.604775 44.59 126.924775 44.59 123.374775 44.59 119.824775 43.87 117.264775 42.44 115.424775 41.01 113.584775 38.93 112.654775 36.2 112.654775 33.47 112.654775 31.47 113.554775 30.04 115.354775 28.61 117.154775 27.9 119.814775 27.9 123.334775L27.91 123.334775ZM74.51 134.494775 68.52 134.494775C67.46 133.754775 65.83 131.804775 63.65 128.654775 62.95 127.644775 62.22 126.684775 61.47 125.754775 60.72 124.834775 60.2 124.264775 59.91 124.064775 59.62 123.864775 59.18 123.764775 58.58 123.764775L57.69 123.764775 57.69 128.704775C57.69 130.454775 57.73 131.604775 57.81 132.144775 57.89 132.684775 58.11 133.084775 58.47 133.354775 58.83 133.624775 59.51 133.744775 60.51 133.744775L61.58 133.744775 61.58 134.494775 50.93 134.494775 50.93 133.744775 51.65 133.744775C52.6 133.744775 53.26 133.624775 53.63 133.384775 54 133.144775 54.23 132.764775 54.33 132.264775 54.43 131.754775 54.48 130.574775 54.48 128.714775L54.48 117.804775C54.48 116.034775 54.43 114.884775 54.33 114.374775 54.23 113.864775 54.01 113.504775 53.67 113.304775 53.33 113.104775 52.6 113.004775 51.47 113.004775L51.09 113.004775 51.09 112.254775 54.27 112.094775C56.39 111.994775 58.08 111.944775 59.32 111.944775 61.44 111.944775 63.17 112.144775 64.5 112.534775 65.83 112.924775 66.9 113.574775 67.72 114.474775 68.54 115.374775 68.95 116.444775 68.95 117.694775 68.95 119.154775 68.41 120.394775 67.34 121.414775 66.27 122.444775 64.69 123.084775 62.61 123.334775 63.54 123.784775 65.04 125.404775 67.11 128.194775 68.79 130.454775 70.12 131.944775 71.08 132.644775 72.04 133.344775 73.18 133.714775 74.49 133.764775L74.49 134.514775 74.51 134.494775ZM57.69 123.004775C58.51 122.984775 59.36 122.954775 60.23 122.904775 61.11 122.864775 61.86 122.744775 62.51 122.544775 63.16 122.344775 63.68 122.064775 64.08 121.684775 64.48 121.304775 64.79 120.814775 65.02 120.204775 65.25 119.594775 65.36 118.834775 65.36 117.944775 65.36 116.384775 64.97 115.124775 64.19 114.184775 63.41 113.244775 61.7 112.774775 59.08 112.774775 58.67 112.774775 58.21 112.794775 57.68 112.844775L57.68 123.014775 57.69 123.004775ZM95.27 135.004775 79.53 114.144775 79.53 129.584775C79.53 130.864775 79.59 131.704775 79.72 132.114775 79.85 132.514775 80.2 132.894775 80.8 133.234775 81.39 133.574775 82.28 133.744775 83.46 133.744775L83.46 134.494775 75.16 134.494775 75.16 133.744775C76.22 133.664775 77.03 133.474775 77.59 133.164775 78.15 132.854775 78.48 132.514775 78.58 132.154775 78.68 131.794775 78.74 130.944775 78.74 129.594775L78.74 117.794775C78.74 116.084775 78.66 114.944775 78.5 114.364775 78.34 113.784775 78.09 113.414775 77.75 113.244775 77.41 113.074775 76.64 112.994775 75.44 112.994775L75.44 112.244775 82 112.244775 95.18 129.654775 95.18 116.344775C95.18 115.364775 95.08 114.674775 94.88 114.274775 94.68 113.874775 94.26 113.564775 93.64 113.334775 93.02 113.104775 92.27 112.994775 91.39 112.994775L91.39 112.244775 99.46 112.244775 99.46 112.994775C98.52 113.074775 97.78 113.254775 97.24 113.534775 96.7 113.814775 96.35 114.164775 96.21 114.564775 96.07 114.964775 95.99 115.644775 95.99 116.594775L95.99 135.004775 95.28 135.004775 95.27 135.004775ZM118.96 127.564775 119.75 127.564775 119.27 134.484775 100.84 134.484775 100.84 133.734775 101.3 133.734775C102.41 133.734775 103.12 133.584775 103.44 133.294775 103.76 133.004775 103.97 132.624775 104.06 132.174775 104.15 131.724775 104.19 130.564775 104.19 128.704775L104.19 117.794775C104.19 116.094775 104.14 114.984775 104.05 114.444775 103.96 113.904775 103.74 113.534775 103.41 113.324775 103.08 113.114775 102.37 113.004775 101.3 113.004775L101.3 112.254775 117.2 112.254775 117.73 117.804775 116.96 117.804775C116.61 116.254775 116.18 115.144775 115.67 114.494775 115.16 113.844775 114.56 113.434775 113.86 113.264775 113.16 113.094775 112.03 113.014775 110.48 113.014775L107.4 113.014775 107.4 122.354775 109.76 122.354775C110.84 122.354775 111.6 122.264775 112.03 122.074775 112.46 121.884775 112.75 121.604775 112.88 121.234775 113.02 120.854775 113.09 120.124775 113.09 119.024775L113.86 119.024775 113.86 126.634775 113.09 126.634775C113.09 125.394775 112.99 124.564775 112.78 124.144775 112.57 123.724775 112.27 123.454775 111.87 123.324775 111.47 123.194775 110.79 123.134775 109.84 123.134775L107.39 123.134775 107.39 128.404775C107.39 131.044775 107.56 132.594775 107.9 133.054775 108.24 133.514775 109.15 133.754775 110.64 133.754775L112.3 133.754775C113.47 133.754775 114.43 133.604775 115.19 133.304775 115.95 133.004775 116.66 132.384775 117.35 131.454775 118.03 130.524775 118.57 129.234775 118.97 127.594775L118.96 127.564775ZM145.22 134.494775 139.23 134.494775C138.17 133.754775 136.54 131.804775 134.36 128.654775 133.66 127.644775 132.93 126.684775 132.18 125.754775 131.43 124.834775 130.91 124.264775 130.62 124.064775 130.33 123.864775 129.89 123.764775 129.29 123.764775L128.4 123.764775 128.4 128.704775C128.4 130.454775 128.44 131.604775 128.52 132.144775 128.6 132.684775 128.82 133.084775 129.18 133.354775 129.54 133.624775 130.22 133.744775 131.22 133.744775L132.29 133.744775 132.29 134.494775 121.64 134.494775 121.64 133.744775 122.36 133.744775C123.31 133.744775 123.97 133.624775 124.34 133.384775 124.71 133.144775 124.94 132.764775 125.04 132.264775 125.14 131.754775 125.19 130.574775 125.19 128.714775L125.19 117.804775C125.19 116.034775 125.14 114.884775 125.04 114.374775 124.94 113.864775 124.72 113.504775 124.38 113.304775 124.04 113.104775 123.31 113.004775 122.18 113.004775L121.8 113.004775 121.8 112.254775 124.98 112.094775C127.1 111.994775 128.79 111.944775 130.03 111.944775 132.15 111.944775 133.88 112.144775 135.21 112.534775 136.54 112.924775 137.61 113.574775 138.43 114.474775 139.25 115.374775 139.66 116.444775 139.66 117.694775 139.66 119.154775 139.12 120.394775 138.05 121.414775 136.98 122.444775 135.4 123.084775 133.32 123.334775 134.25 123.784775 135.75 125.404775 137.82 128.194775 139.5 130.454775 140.83 131.944775 141.79 132.644775 142.75 133.344775 143.89 133.714775 145.2 133.764775L145.2 134.514775 145.22 134.494775ZM128.4 123.004775C129.22 122.984775 130.07 122.954775 130.94 122.904775 131.82 122.864775 132.58 122.744775 133.22 122.544775 133.87 122.344775 134.39 122.064775 134.79 121.684775 135.19 121.304775 135.5 120.814775 135.73 120.204775 135.96 119.594775 136.07 118.834775 136.07 117.944775 136.07 116.384775 135.68 115.124775 134.9 114.184775 134.12 113.244775 132.41 112.774775 129.79 112.774775 129.38 112.774775 128.92 112.794775 128.4 112.844775L128.4 123.014775 128.4 123.004775ZM147.22 134.264775 147.22 127.114775 148.04 127.114775C148.97 131.774775 151.17 134.104775 154.65 134.104775 156.21 134.104775 157.43 133.654775 158.28 132.764775 159.13 131.874775 159.57 130.874775 159.57 129.774775 159.57 128.674775 159.19 127.724775 158.44 126.964775 157.68 126.224775 156.31 125.424775 154.3 124.564775 152.52 123.794775 151.17 123.124775 150.26 122.554775 149.35 121.984775 148.64 121.234775 148.14 120.314775 147.64 119.394775 147.38 118.414775 147.38 117.374775 147.38 115.784775 147.93 114.464775 149.03 113.414775 150.13 112.364775 151.52 111.834775 153.21 111.834775 154.15 111.834775 155.04 111.984775 155.87 112.294775 156.7 112.604775 157.55 113.234775 158.43 114.194775 158.93 113.594775 159.22 112.944775 159.28 112.244775L160 112.244775 160 118.074775 159.28 118.074775C158.86 116.374775 158.13 115.044775 157.07 114.074775 156.02 113.104775 154.79 112.614775 153.4 112.614775 152.01 112.614775 151.11 112.974775 150.49 113.694775 149.87 114.414775 149.56 115.194775 149.56 116.044775 149.56 117.074775 149.95 117.944775 150.73 118.654775 151.5 119.374775 152.88 120.184775 154.88 121.084775 156.8 121.934775 158.19 122.624775 159.06 123.144775 159.93 123.664775 160.63 124.384775 161.15 125.304775 161.67 126.224775 161.94 127.284775 161.94 128.484775 161.94 130.384775 161.31 131.934775 160.04 133.124775 158.77 134.314775 157.08 134.914775 154.95 134.914775 152.51 134.914775 150.48 133.974775 148.85 132.104775 148.49 132.614775 148.22 133.344775 148.05 134.274775L147.23 134.274775 147.22 134.264775ZM165.09 117.594775 164.34 117.594775 164.45 112.244775 186.04 112.244775 186.16 117.594775 185.45 117.594775C185.2 116.124775 184.85 115.074775 184.42 114.424775 183.98 113.774775 183.51 113.374775 183.01 113.224775 182.51 113.074775 181.65 113.004775 180.43 113.004775L176.85 113.004775 176.85 128.704775C176.85 130.444775 176.89 131.584775 176.97 132.134775 177.05 132.684775 177.27 133.084775 177.64 133.344775 178.01 133.604775 178.68 133.734775 179.67 133.734775L180.75 133.734775 180.75 134.484775 169.66 134.484775 169.66 133.734775 170.81 133.734775C171.76 133.734775 172.42 133.614775 172.79 133.374775 173.16 133.134775 173.39 132.754775 173.5 132.254775 173.6 131.744775 173.66 130.564775 173.66 128.704775L173.66 113.004775 170.36 113.004775C168.93 113.004775 167.96 113.074775 167.47 113.214775 166.98 113.354775 166.52 113.764775 166.08 114.454775 165.65 115.144775 165.32 116.194775 165.09 117.604775L165.09 117.594775ZM187.11 123.224775C187.11 119.794775 188.26 117.034775 190.56 114.954775 192.86 112.874775 195.72 111.834775 199.16 111.834775 202.6 111.834775 205.52 112.864775 207.85 114.914775 210.17 116.974775 211.34 119.774775 211.34 123.334775 211.34 126.894775 210.23 129.574775 208 131.704775 205.77 133.834775 202.84 134.904775 199.21 134.904775 195.58 134.904775 192.78 133.834775 190.51 131.704775 188.25 129.574775 187.11 126.744775 187.11 123.224775ZM190.87 123.334775C190.87 126.914775 191.58 129.594775 193.01 131.394775 194.44 133.184775 196.58 134.084775 199.43 134.084775 201.93 134.084775 203.92 133.184775 205.37 131.394775 206.83 129.604775 207.55 126.924775 207.55 123.374775 207.55 119.824775 206.83 117.264775 205.4 115.424775 203.97 113.584775 201.89 112.654775 199.16 112.654775 196.43 112.654775 194.43 113.554775 193 115.354775 191.57 117.154775 190.86 119.814775 190.86 123.334775L190.87 123.334775ZM233.73 135.004775 217.99 114.144775 217.99 129.584775C217.99 130.864775 218.05 131.704775 218.18 132.114775 218.3 132.514775 218.66 132.894775 219.25 133.234775 219.84 133.574775 220.73 133.744775 221.91 133.744775L221.91 134.494775 213.61 134.494775 213.61 133.744775C214.67 133.664775 215.48 133.474775 216.04 133.164775 216.6 132.854775 216.93 132.514775 217.03 132.154775 217.13 131.794775 217.19 130.944775 217.19 129.594775L217.19 117.794775C217.19 116.084775 217.11 114.944775 216.95 114.364775 216.79 113.784775 216.54 113.414775 216.2 113.244775 215.86 113.084775 215.09 112.994775 213.89 112.994775L213.89 112.244775 220.45 112.244775 233.63 129.654775 233.63 116.344775C233.63 115.364775 233.53 114.674775 233.33 114.274775 233.13 113.884775 232.71 113.564775 232.09 113.334775 231.47 113.104775 230.72 112.994775 229.84 112.994775L229.84 112.244775 237.91 112.244775 237.91 112.994775C236.97 113.074775 236.23 113.254775 235.69 113.534775 235.15 113.814775 234.8 114.164775 234.66 114.564775 234.52 114.964775 234.44 115.644775 234.44 116.594775L234.44 135.004775 233.73 135.004775 233.73 135.004775ZM257.42 127.564775 258.21 127.564775 257.73 134.484775 239.3 134.484775 239.3 133.734775 239.76 133.734775C240.86 133.734775 241.58 133.584775 241.9 133.294775 242.22 133.004775 242.43 132.624775 242.52 132.174775 242.61 131.724775 242.65 130.564775 242.65 128.704775L242.65 117.794775C242.65 116.094775 242.6 114.984775 242.51 114.444775 242.42 113.904775 242.2 113.534775 241.87 113.324775 241.54 113.114775 240.83 113.004775 239.76 113.004775L239.76 112.254775 255.66 112.254775 256.18 117.804775 255.41 117.804775C255.06 116.254775 254.63 115.144775 254.12 114.494775 253.61 113.844775 253.01 113.434775 252.31 113.264775 251.61 113.094775 250.48 113.014775 248.93 113.014775L245.85 113.014775 245.85 122.354775 248.21 122.354775C249.29 122.354775 250.05 122.264775 250.48 122.074775 250.91 121.884775 251.2 121.604775 251.33 121.234775 251.47 120.854775 251.54 120.124775 251.54 119.024775L252.31 119.024775 252.31 126.634775 251.54 126.634775C251.54 125.394775 251.44 124.564775 251.23 124.144775 251.02 123.724775 250.72 123.454775 250.32 123.324775 249.92 123.194775 249.25 123.134775 248.29 123.134775L245.85 123.134775 245.85 128.404775C245.85 131.044775 246.02 132.594775 246.36 133.054775 246.7 133.514775 247.61 133.754775 249.1 133.754775L250.76 133.754775C251.93 133.754775 252.89 133.604775 253.65 133.304775 254.41 133.004775 255.12 132.384775 255.81 131.454775 256.49 130.524775 257.03 129.234775 257.43 127.594775L257.42 127.564775Z"/><path fill="#7B999E" fill-rule="nonzero" d="M46.55 151.734775C46.55 150.134775 47.21 148.674775 48.25 147.634775 49.27 146.614775 50.73 145.954775 52.33 145.954775 53.93 145.954775 55.12 146.494775 56.2 147.444775 56.33 147.574775 56.34 147.764775 56.22 147.894775L55.79 148.324775C55.68 148.464775 55.53 148.464775 55.37 148.304775 54.54 147.584775 53.4 147.104775 52.31 147.104775 51.05 147.104775 49.94 147.634775 49.14 148.464775 48.34 149.314775 47.84 150.484775 47.84 151.714775 47.84 152.944775 48.34 154.094775 49.14 154.934775 49.94 155.784775 51.04 156.314775 52.31 156.314775 53.01 156.314775 53.57 156.174775 54.05 155.944775 54.53 155.724775 54.93 155.434775 55.36 155.114775 55.44 155.054775 55.52 155.014775 55.58 155.014775 55.63 155.014775 55.69 155.034775 55.74 155.064775L56.22 155.494775C56.35 155.604775 56.32 155.814775 56.2 155.924775 55.11 156.994775 53.73 157.474775 52.31 157.474775 50.71 157.474775 49.25 156.834775 48.23 155.794775 47.19 154.774775 46.53 153.334775 46.53 151.724775L46.55 151.734775ZM60.59 146.414775C60.59 146.234775 60.72 146.114775 60.89 146.114775L61.51 146.114775C61.69 146.114775 61.81 146.244775 61.81 146.414775L61.81 156.244775 66.42 156.244775C66.6 156.244775 66.72 156.374775 66.72 156.544775L66.72 157.004775C66.72 157.184775 66.59 157.304775 66.42 157.304775L60.88 157.304775C60.7 157.304775 60.58 157.174775 60.58 157.004775L60.58 146.404775 60.59 146.414775ZM69.6 157.314775C69.36 157.314775 69.22 157.104775 69.33 156.894775L74.2 146.124775C74.25 146.014775 74.34 145.944775 74.47 145.944775L74.63 145.944775C74.74 145.944775 74.84 146.004775 74.9 146.124775L79.73 156.894775C79.84 157.104775 79.7 157.314775 79.46 157.314775L78.82 157.314775C78.68 157.314775 78.6 157.214775 78.55 157.134775L77.37 154.494775 71.69 154.494775 70.52 157.134775C70.47 157.214775 70.39 157.314775 70.25 157.314775L69.61 157.314775 69.6 157.314775ZM72.13 153.504775 76.93 153.504775C76.53 152.624775 76.15 151.764775 75.76 150.884775 75.38 150.004775 74.99 149.144775 74.59 148.264775L74.46 148.264775 72.12 153.514775 72.13 153.504775ZM82.77 156.184775C82.64 156.074775 82.48 155.944775 82.67 155.644775 82.72 155.594775 82.75 155.534775 82.8 155.484775 82.83 155.434775 82.86 155.384775 82.91 155.344775 83.09 155.134775 83.23 155.004775 83.47 155.204775 83.5 155.224775 83.6 155.304775 83.74 155.424775 84.04 155.694775 84.52 156.004775 85.16 156.244775 85.48 156.354775 85.82 156.424775 86.17 156.424775 86.81 156.424775 87.35 156.214775 87.74 155.894775 88.11 155.574775 88.32 155.124775 88.32 154.664775 88.32 153.564775 87.38 152.904775 85.52 152.134775 84.64 151.754775 83.94 151.384775 83.46 150.874775 82.98 150.374775 82.71 149.734775 82.71 148.824775 82.71 148.294775 82.93 147.574775 83.46 146.994775 83.99 146.414775 84.84 145.974775 86.12 145.974775 86.9 145.974775 87.58 146.184775 88.07 146.394775 88.34 146.504775 88.61 146.654775 88.85 146.794775 88.96 146.844775 89.14 147.034775 88.95 147.334775 88.92 147.384775 88.89 147.434775 88.85 147.474775L88.75 147.634775C88.61 147.874775 88.45 147.924775 88.19 147.774775L87.95 147.634775C87.69 147.474775 87.31 147.284775 86.83 147.134775 86.59 147.074775 86.33 147.034775 86.09 147.034775 85.24 147.034775 84.68 147.304775 84.35 147.654775 84.01 148.004775 83.89 148.454775 83.89 148.794775 83.89 149.864775 84.71 150.494775 86.05 151.054775 87.14 151.504775 88.02 151.914775 88.64 152.464775 89.26 153.004775 89.6 153.694775 89.6 154.604775 89.6 155.434775 89.2 156.154775 88.58 156.674775 87.94 157.184775 87.09 157.494775 86.15 157.494775 85.21 157.494775 84.41 157.224775 83.83 156.914775 83.54 156.774775 83.3 156.624775 83.13 156.484775 82.95 156.344775 82.83 156.244775 82.78 156.194775L82.77 156.184775ZM93.22 156.184775C93.09 156.074775 92.93 155.944775 93.12 155.644775 93.17 155.594775 93.2 155.534775 93.25 155.484775 93.28 155.434775 93.31 155.384775 93.36 155.344775 93.54 155.134775 93.68 155.004775 93.92 155.204775 93.95 155.224775 94.05 155.304775 94.19 155.424775 94.49 155.694775 94.97 156.004775 95.61 156.244775 95.93 156.354775 96.27 156.424775 96.62 156.424775 97.26 156.424775 97.8 156.214775 98.19 155.894775 98.56 155.574775 98.77 155.124775 98.77 154.664775 98.77 153.564775 97.83 152.904775 95.97 152.134775 95.09 151.754775 94.39 151.384775 93.91 150.874775 93.43 150.374775 93.16 149.734775 93.16 148.824775 93.16 148.294775 93.38 147.574775 93.91 146.994775 94.44 146.414775 95.29 145.974775 96.57 145.974775 97.35 145.974775 98.03 146.184775 98.52 146.394775 98.79 146.504775 99.06 146.654775 99.3 146.794775 99.41 146.844775 99.59 147.034775 99.4 147.334775 99.37 147.384775 99.34 147.434775 99.3 147.474775L99.2 147.634775C99.06 147.874775 98.9 147.924775 98.64 147.774775L98.4 147.634775C98.14 147.474775 97.76 147.284775 97.28 147.134775 97.04 147.074775 96.78 147.034775 96.54 147.034775 95.69 147.034775 95.13 147.304775 94.8 147.654775 94.46 148.004775 94.34 148.454775 94.34 148.794775 94.34 149.864775 95.16 150.494775 96.5 151.054775 97.59 151.504775 98.47 151.914775 99.09 152.464775 99.71 153.004775 100.05 153.694775 100.05 154.604775 100.05 155.434775 99.65 156.154775 99.03 156.674775 98.39 157.184775 97.54 157.494775 96.6 157.494775 95.66 157.494775 94.86 157.224775 94.28 156.914775 93.99 156.774775 93.75 156.624775 93.58 156.484775 93.4 156.344775 93.28 156.244775 93.23 156.194775L93.22 156.184775ZM104.29 146.414775C104.29 146.234775 104.42 146.114775 104.59 146.114775L105.23 146.114775C105.41 146.114775 105.53 146.244775 105.53 146.414775L105.53 157.014775C105.53 157.194775 105.4 157.314775 105.23 157.314775L104.59 157.314775C104.41 157.314775 104.29 157.184775 104.29 157.014775L104.29 146.414775ZM109.9 151.734775C109.9 150.134775 110.56 148.674775 111.6 147.634775 112.62 146.614775 114.08 145.954775 115.68 145.954775 117.28 145.954775 118.47 146.494775 119.55 147.444775 119.68 147.574775 119.69 147.764775 119.57 147.894775L119.14 148.324775C119.03 148.464775 118.88 148.464775 118.72 148.304775 117.89 147.584775 116.75 147.104775 115.66 147.104775 114.4 147.104775 113.29 147.634775 112.49 148.464775 111.69 149.314775 111.19 150.484775 111.19 151.714775 111.19 152.944775 111.69 154.094775 112.49 154.934775 113.29 155.784775 114.39 156.314775 115.66 156.314775 116.36 156.314775 116.92 156.174775 117.4 155.944775 117.88 155.724775 118.28 155.434775 118.71 155.114775 118.79 155.054775 118.87 155.014775 118.93 155.014775 118.98 155.014775 119.04 155.034775 119.09 155.064775L119.57 155.494775C119.7 155.604775 119.67 155.814775 119.55 155.924775 118.46 156.994775 117.08 157.474775 115.66 157.474775 114.06 157.474775 112.6 156.834775 111.58 155.794775 110.54 154.774775 109.88 153.334775 109.88 151.724775L109.9 151.734775ZM122.69 157.314775C122.45 157.314775 122.31 157.104775 122.42 156.894775L127.29 146.124775C127.34 146.014775 127.43 145.944775 127.56 145.944775L127.72 145.944775C127.83 145.944775 127.93 146.004775 127.99 146.124775L132.82 156.894775C132.93 157.104775 132.79 157.314775 132.55 157.314775L131.91 157.314775C131.77 157.314775 131.69 157.214775 131.64 157.134775L130.46 154.494775 124.78 154.494775 123.61 157.134775C123.56 157.214775 123.48 157.314775 123.34 157.314775L122.7 157.314775 122.69 157.314775ZM125.22 153.504775 130.02 153.504775C129.62 152.624775 129.24 151.764775 128.85 150.884775 128.46 150.004775 128.08 149.144775 127.68 148.264775L127.55 148.264775 125.21 153.514775 125.22 153.504775ZM136.48 146.414775C136.48 146.234775 136.61 146.114775 136.78 146.114775L137.4 146.114775C137.58 146.114775 137.7 146.244775 137.7 146.414775L137.7 156.244775 142.31 156.244775C142.49 156.244775 142.61 156.374775 142.61 156.544775L142.61 157.004775C142.61 157.184775 142.48 157.304775 142.31 157.304775L136.77 157.304775C136.59 157.304775 136.47 157.174775 136.47 157.004775L136.47 146.404775 136.48 146.414775ZM150.91 151.734775C150.91 150.134775 151.57 148.674775 152.61 147.634775 153.63 146.614775 155.09 145.954775 156.69 145.954775 158.29 145.954775 159.48 146.494775 160.56 147.444775 160.69 147.574775 160.7 147.764775 160.58 147.894775L160.15 148.324775C160.04 148.464775 159.89 148.464775 159.73 148.304775 158.9 147.584775 157.76 147.104775 156.67 147.104775 155.41 147.104775 154.3 147.634775 153.5 148.464775 152.7 149.314775 152.2 150.484775 152.2 151.714775 152.2 152.944775 152.7 154.094775 153.5 154.934775 154.3 155.784775 155.4 156.314775 156.67 156.314775 157.37 156.314775 157.93 156.174775 158.42 155.944775 158.9 155.724775 159.3 155.434775 159.73 155.114775 159.81 155.054775 159.89 155.014775 159.95 155.014775 160 155.014775 160.06 155.034775 160.11 155.064775L160.59 155.494775C160.72 155.604775 160.69 155.814775 160.57 155.924775 159.48 156.994775 158.11 157.474775 156.68 157.474775 155.08 157.474775 153.62 156.834775 152.6 155.794775 151.56 154.774775 150.9 153.334775 150.9 151.724775L150.91 151.734775ZM164.1 151.734775C164.1 150.134775 164.74 148.674775 165.78 147.634775 166.8 146.614775 168.24 145.954775 169.85 145.954775 171.46 145.954775 172.89 146.614775 173.93 147.634775 174.97 148.674775 175.61 150.134775 175.61 151.734775 175.61 153.334775 174.97 154.774775 173.93 155.804775 172.89 156.844775 171.45 157.484775 169.85 157.484775 168.25 157.484775 166.81 156.844775 165.78 155.804775 164.74 154.784775 164.1 153.344775 164.1 151.734775ZM165.22 151.734775C165.22 153.014775 165.75 154.164775 166.58 155.004775 167.41 155.844775 168.57 156.364775 169.85 156.364775 171.13 156.364775 172.28 155.834775 173.13 155.004775 173.96 154.174775 174.49 153.024775 174.49 151.734775 174.49 150.444775 173.96 149.304775 173.13 148.454775 172.28 147.604775 171.13 147.074775 169.85 147.074775 168.57 147.074775 167.42 147.604775 166.58 148.454775 165.75 149.304775 165.22 150.454775 165.22 151.734775ZM179.79 153.794775C179.61 153.794775 179.49 153.684775 179.49 153.504775L179.49 153.204775C179.49 152.994775 179.59 152.904775 179.79 152.904775L183.13 152.904775C183.34 152.904775 183.43 153.004775 183.43 153.204775L183.43 153.504775C183.43 153.684775 183.3 153.794775 183.13 153.794775L179.79 153.794775ZM187.33 151.734775C187.33 150.134775 187.97 148.674775 189.01 147.634775 190.03 146.614775 191.47 145.954775 193.08 145.954775 194.69 145.954775 196.12 146.614775 197.16 147.634775 198.2 148.674775 198.84 150.134775 198.84 151.734775 198.84 153.334775 198.2 154.774775 197.16 155.804775 196.12 156.844775 194.68 157.484775 193.08 157.484775 191.48 157.484775 190.04 156.844775 189.01 155.804775 187.97 154.784775 187.33 153.344775 187.33 151.734775ZM188.45 151.734775C188.45 153.014775 188.98 154.164775 189.81 155.004775 190.64 155.844775 191.8 156.364775 193.08 156.364775 194.36 156.364775 195.51 155.834775 196.36 155.004775 197.19 154.174775 197.72 153.024775 197.72 151.734775 197.72 150.444775 197.19 149.304775 196.36 148.454775 195.51 147.604775 194.36 147.074775 193.08 147.074775 191.8 147.074775 190.65 147.604775 189.81 148.454775 188.98 149.304775 188.45 150.454775 188.45 151.734775ZM203.2 146.414775C203.2 146.234775 203.33 146.114775 203.5 146.114775L207.04 146.114775C208.02 146.114775 208.93 146.514775 209.58 147.154775 210.22 147.794775 210.62 148.694775 210.62 149.654775 210.62 150.614775 210.22 151.544775 209.58 152.194775 208.92 152.854775 208.03 153.254775 207.05 153.254775L204.41 153.254775 204.41 157.014775C204.41 157.194775 204.28 157.314775 204.11 157.314775L203.5 157.314775C203.32 157.314775 203.2 157.184775 203.2 157.014775L203.2 146.414775 203.2 146.414775ZM204.42 152.064775 206.96 152.064775C207.62 152.064775 208.22 151.794775 208.67 151.344775 209.12 150.914775 209.39 150.304775 209.39 149.614775 209.39 148.974775 209.12 148.384775 208.67 147.984775 208.22 147.584775 207.61 147.324775 206.96 147.324775L204.42 147.324775 204.42 152.064775 204.42 152.064775Z"/><path fill="#DAEDF0" fill-rule="nonzero" d="M128.34,44.6647745 L92.57,24.0147745 C91.67,23.4947745 91.67,22.1947745 92.57,21.6747745 L128.34,1.02477455 C128.76,0.784774549 129.27,0.784774549 129.69,1.02477455 L165.47,21.6747745 C166.37,22.1947745 166.37,23.4947745 165.47,24.0147745 L129.69,44.6747745 C129.27,44.9147745 128.76,44.9147745 128.34,44.6747745 L128.34,44.6647745 Z"/><path fill="#FFF" fill-rule="nonzero" d="M127.920763,0.291109094 C128.600543,-0.0973369657 129.429457,-0.0973369657 130.112384,0.292915844 L165.892735,20.9431186 C167.355755,21.7884193 167.355755,23.9011298 165.892537,24.7465447 L130.109237,45.40844 C129.429457,45.7968861 128.600543,45.7968861 127.920763,45.40844 C127.887852,45.3896342 127.856517,45.3688044 127.826878,45.3461581 L127.818,45.3387745 L92.1472654,24.7464305 C90.7346938,23.9302781 90.6859845,21.9326165 92.0013736,21.0348442 L92.1475279,20.942967 L127.920763,0.291109094 Z M129.270763,1.75844 C129.110543,1.66688606 128.919457,1.66688606 128.762472,1.75658213 L92.9927346,22.4064305 C92.6557551,22.6011298 92.6557551,23.0884193 92.9924721,23.282967 L128.762472,43.932967 L128.808,43.9637745 L128.841618,43.9792653 C128.954086,44.0199911 129.075456,44.0201666 129.186457,43.9803534 L129.267463,43.9430044 L165.047265,23.2831186 C165.384245,23.0884193 165.384245,22.6011298 165.047616,22.4066333 L129.270763,1.75844 Z"/><rect width="106.85" height="43.64" x="75.82" y="43.745" fill="#263333" fill-rule="nonzero" rx="2.03"/><path fill="#FFF" fill-rule="nonzero" d="M180.64,42.9197745 C182.216773,42.9197745 183.495,44.1980016 183.495,45.7747745 L183.495,85.3547745 C183.495,86.9315475 182.216773,88.2097745 180.64,88.2097745 L77.85,88.2097745 C76.273227,88.2097745 74.995,86.9315475 74.995,85.3547745 L74.995,45.7747745 C74.995,44.1980016 76.273227,42.9197745 77.85,42.9197745 L180.64,42.9197745 Z M180.64,44.5697745 L77.85,44.5697745 C77.1844969,44.5697745 76.645,45.1092714 76.645,45.7747745 L76.645,85.3547745 C76.645,86.0202777 77.1844969,86.5597745 77.85,86.5597745 L180.64,86.5597745 C181.305503,86.5597745 181.845,86.0202777 181.845,85.3547745 L181.845,45.7747745 C181.845,45.1092714 181.305503,44.5697745 180.64,44.5697745 Z"/><polygon stroke="#000" stroke-linejoin="round" stroke-width=".24" points="166.58 64.745 166.58 64.735 166.57 64.735"/><path fill="#7B999E" fill-rule="nonzero" d="M127.17,86.1447745 L82.21,80.3147745 C81.3,80.1947745 80.61,79.4147745 80.61,78.4947745 L80.61,38.8447745 C80.61,37.7347745 81.58,36.8847745 82.68,37.0247745 L127.64,42.8547745 C128.55,42.9747745 129.24,43.7547745 129.24,44.6747745 L129.24,84.3347745 C129.24,85.4447745 128.27,86.2947745 127.17,86.1547745 L127.17,86.1447745 Z"/><path fill="#FFF" fill-rule="nonzero" d="M79.785,38.8447745 C79.785,37.2382209 81.1907369,36.003577 82.7860902,36.2066243 L127.747857,42.0368554 C129.069162,42.2110934 130.065,43.3417388 130.065,44.6747745 L130.065,84.3347745 C130.065,85.9413282 128.659263,87.1759721 127.06584,86.9731728 C127.031504,86.9688027 126.997884,86.9623621 126.9651,86.953986 L126.946,86.9476574 L82.1021425,81.1326937 C80.8382857,80.9660313 79.8722098,79.9243194 79.7905924,78.667439 L79.785,78.4947745 L79.785,38.8447745 Z M82.5758402,37.8431728 C81.9673331,37.7657265 81.435,38.233269 81.435,38.8447745 L81.435,78.4947745 C81.435,78.9983326 81.8157681,79.4306458 82.3160902,79.4966243 L127.27609,85.3266243 L127.354,85.3416574 L127.387251,85.3447803 C127.909804,85.3541369 128.352208,84.9655976 128.408873,84.4476469 L128.415,84.3347688 L128.415,44.6747745 C128.415,44.1712165 128.034232,43.7389033 127.53391,43.6729248 L82.5758402,37.8431728 Z"/><path fill="#7B999E" fill-rule="nonzero" d="M126.75,85.5547745 L87.43,72.8447745 C86.67,72.5847745 86.16,71.8647745 86.16,71.0647745 L86.16,30.8247745 C86.16,29.5347745 87.43,28.6247745 88.65,29.0447745 L127.97,42.6147745 C128.73,42.8747745 129.24,43.5947745 129.24,44.3947745 L129.24,83.7747745 C129.24,85.0647745 127.97,85.9747745 126.75,85.5547745 L126.75,85.5547745 Z"/><path fill="#FFF" fill-rule="nonzero" d="M85.335,30.8247745 C85.335,28.9681341 87.1629993,27.6603367 88.919144,28.2649114 L128.237042,41.8341893 C129.329607,42.2079612 130.065,43.2408172 130.065,44.3947745 L130.065,83.7747745 C130.065,85.631415 128.237001,86.9392123 126.481452,86.3348431 L126.49625,86.3397816 L87.1629577,73.6253598 C86.0703935,73.2515879 85.335,72.2187319 85.335,71.0647745 L85.335,30.8247745 Z M88.3814518,29.8248431 C87.6983309,29.5896703 86.985,30.1000054 86.985,30.8247745 L86.985,71.0647745 C86.985,71.5145251 87.2730966,71.9191552 87.6837497,72.0597675 L127.00375,84.7697675 L127.018548,84.774706 C127.701669,85.0098788 128.415,84.4995437 128.415,83.7747745 L128.415,44.3947745 C128.415,43.945024 128.126903,43.5403939 127.700856,43.3946377 L88.3814518,29.8248431 Z"/><path fill="#7B999E" fill-rule="nonzero" d="M131.3,86.1447745 L176.26,80.3147745 C177.17,80.1947745 177.86,79.4147745 177.86,78.4947745 L177.86,38.8447745 C177.86,37.7347745 176.89,36.8847745 175.79,37.0247745 L130.83,42.8547745 C129.92,42.9747745 129.23,43.7547745 129.23,44.6747745 L129.23,84.3347745 C129.23,85.4447745 130.2,86.2947745 131.3,86.1547745 L131.3,86.1447745 Z"/><path fill="#FFF" fill-rule="nonzero" d="M175.68584,36.2063763 C177.279263,36.003577 178.685,37.2382209 178.685,38.8447745 L178.685,78.4947745 C178.685,79.8278103 177.689162,80.9584557 176.36609,81.1329248 L131.523,86.9476574 L131.5049,86.953986 L131.40416,86.9731728 C129.810737,87.1759721 128.405,85.9413282 128.405,84.3347745 L128.405,44.6747745 C128.405,43.3417388 129.400838,42.2110934 130.72391,42.0366243 L175.68584,36.2063763 Z M176.008841,37.8345712 L175.89609,37.8429248 L130.937857,43.6726937 C130.435768,43.7389033 130.055,44.1712165 130.055,44.6747745 L130.055,84.3347745 C130.055,84.9462801 130.587333,85.4138226 131.19584,85.3363763 L131.115,85.3416574 L131.19391,85.3266243 L176.152143,79.4968554 C176.654232,79.4306458 177.035,78.9983326 177.035,78.4947745 L177.035,38.8447745 C177.035,38.233269 176.502667,37.7657265 175.89609,37.8429248 L176.008841,37.8345712 Z"/><path fill="#7B999E" fill-rule="nonzero" d="M131.73,85.5547745 L171.05,72.8447745 C171.81,72.5847745 172.32,71.8647745 172.32,71.0647745 L172.32,30.8247745 C172.32,29.5347745 171.05,28.6247745 169.83,29.0447745 L130.51,42.6147745 C129.75,42.8747745 129.24,43.5947745 129.24,44.3947745 L129.24,83.7747745 C129.24,85.0647745 130.51,85.9747745 131.73,85.5547745 Z"/><path fill="#FFF" fill-rule="nonzero" d="M169.561452,28.264706 C171.317001,27.6603367 173.145,28.9681341 173.145,30.8247745 L173.145,71.0647745 C173.145,72.2187319 172.409607,73.2515879 171.30375,73.6297816 L131.98375,86.3397816 L131.998548,86.3348431 C130.242999,86.9392123 128.415,85.631415 128.415,83.7747745 L128.415,44.3947745 C128.415,43.2408172 129.150393,42.2079612 130.240856,41.8349114 L169.561452,28.264706 Z M171.495,30.8247745 C171.495,30.1000054 170.781669,29.5896703 170.099144,29.8246377 L130.777042,43.3953598 C130.353097,43.5403939 130.065,43.945024 130.065,44.3947745 L130.065,83.7747745 C130.065,84.4995437 130.778331,85.0098788 131.461452,84.774706 L131.47625,84.7697675 L170.782958,72.0641893 C171.206903,71.9191552 171.495,71.5145251 171.495,71.0647745 L171.495,30.8247745 Z"/><path fill="#B0CBCF" fill-rule="nonzero" d="M127.39,85.3447745 L92.31,65.0947745 C91.93,64.8747745 91.69,64.4647745 91.69,64.0247745 L91.69,23.5247745 C91.69,22.5747745 92.72,21.9747745 93.54,22.4547745 L128.62,42.7047745 C129,42.9247745 129.24,43.3347745 129.24,43.7747745 L129.24,84.2747745 C129.24,85.2247745 128.21,85.8247745 127.39,85.3447745 L127.39,85.3447745 Z"/><path fill="#FFF" fill-rule="nonzero" d="M91.8966451,65.8087512 C91.2614648,65.4410153 90.865,64.7587271 90.865,64.0247745 L90.865,23.5247745 C90.865,21.9383516 92.5860229,20.9403974 93.9524473,21.7402732 L129.033355,41.9907979 C129.668535,42.3585338 130.065,43.040822 130.065,43.7747745 L130.065,84.2747745 C130.065,85.8611975 128.343977,86.8591517 126.973227,86.0567615 L91.8966451,65.8087512 Z M93.1232272,23.1667615 C92.8563312,23.0105297 92.515,23.2084544 92.515,23.5247745 L92.515,64.0247745 C92.515,64.1677988 92.5958879,64.3070011 92.7224473,64.3802732 L127.802447,84.6302732 C128.073669,84.7890194 128.415,84.5910947 128.415,84.2747745 L128.415,43.7747745 C128.415,43.6317503 128.334112,43.492548 128.207553,43.4192759 L93.1232272,23.1667615 Z"/><path fill="#B0CBCF" fill-rule="nonzero" d="M130.98,85.4147745 L166.23,65.0747745 C166.59,64.8647745 166.81,64.4847745 166.81,64.0747745 L166.81,23.3747745 C166.81,22.4847745 165.85,21.9247745 165.08,22.3747745 L129.83,42.7247745 C129.47,42.9347745 129.25,43.3147745 129.25,43.7247745 L129.25,84.4147745 C129.25,85.3047745 130.21,85.8647745 130.98,85.4147745 Z"/><path fill="#FFF" fill-rule="nonzero" d="M131.2632,86.1985023 C129.967642,86.8342631 128.425,85.8904561 128.425,84.4147745 L128.425,43.7247745 C128.425,43.0198319 128.80215,42.3692482 129.417524,42.0102896 L164.663731,21.6624927 C165.984135,20.8908283 167.635,21.8482074 167.635,23.3747745 L167.635,64.0747745 C167.635,64.7797172 167.25785,65.4303009 166.642324,65.7893473 L131.392324,86.1293473 L131.2632,86.1985023 Z M165.985,23.3747745 C165.985,23.1180703 165.713056,22.9603628 165.492476,23.0892595 L130.245694,43.4373921 C130.138288,43.5000454 130.075,43.6092172 130.075,43.7247745 L130.075,84.4147745 C130.075,84.6714788 130.346944,84.8291863 130.563731,84.7024927 L165.814306,64.362157 C165.921712,64.2995037 165.985,64.1903319 165.985,64.0747745 L165.985,23.3747745 Z"/><line x1="98.57" x2="119.88" y1="53.975" y2="66.275" stroke="#7B999E" stroke-linecap="round" stroke-linejoin="round" stroke-width="1.65"/><line x1="119.88" x2="98.57" y1="60.685" y2="48.385" stroke="#7B999E" stroke-linecap="round" stroke-linejoin="round" stroke-width="1.65"/><line x1="98.57" x2="119.88" y1="59.555" y2="71.855" stroke="#7B999E" stroke-linecap="round" stroke-linejoin="round" stroke-width="1.65"/><line x1="119.88" x2="98.57" y1="55.105" y2="42.805" stroke="#7B999E" stroke-linecap="round" stroke-linejoin="round" stroke-width="1.65"/><line x1="119.88" x2="98.57" y1="49.515" y2="37.215" stroke="#7B999E" stroke-linecap="round" stroke-linejoin="round" stroke-width="1.65"/><line x1="159.89" x2="138.59" y1="53.975" y2="66.275" stroke="#7B999E" stroke-linecap="round" stroke-linejoin="round" stroke-width="1.65"/><line x1="138.59" x2="159.89" y1="60.685" y2="48.385" stroke="#7B999E" stroke-linecap="round" stroke-linejoin="round" stroke-width="1.65"/><line x1="159.89" x2="138.59" y1="59.555" y2="71.855" stroke="#7B999E" stroke-linecap="round" stroke-linejoin="round" stroke-width="1.65"/><line x1="138.59" x2="159.89" y1="55.105" y2="42.805" stroke="#7B999E" stroke-linecap="round" stroke-linejoin="round" stroke-width="1.65"/><line x1="138.59" x2="159.89" y1="49.515" y2="37.215" stroke="#7B999E" stroke-linecap="round" stroke-linejoin="round" stroke-width="1.65"/><polygon fill="#FFF" fill-rule="nonzero" points="128.78 87.025 127.17 86.145 129.08 85.125 130.98 85.415 130.08 86.825"/><polygon fill="#7B999E" fill-rule="nonzero" points="129.25 87.945 126.02 85.715 126.02 102.105 129.25 99.875 132.02 102.105 132.02 85.715"/></g></svg>