<svg xmlns="http://www.w3.org/2000/svg" width="192" height="192" viewBox="0 0 192 192"><g fill="none" fill-rule="evenodd"><path fill="#FFF" d="M94.0002136,136.171867 C82.7818358,136.171867 74.2931273,127.985673 73.3841755,126.7728 C72.1713019,125.409372 70.8064673,125.257411 69.2910787,126.470285 L63.3786714,131.926809 C62.3177587,132.837168 62.3177587,134.504517 63.2267104,135.56543 C66.5628165,139.506566 75.5060009,149.056187 94.3027285,149.056187 C115.222688,149.056187 128.562892,136.626343 128.562892,120.103402 C128.562892,107.06712 117.344514,97.9705679 110.22064,94.9397908 L110.22064,94.4839079 C117.041999,91.3011699 125.834629,82.3565784 125.834629,70.6851318 C125.834629,53.7063077 111.736028,42.9438128 94.1521746,42.9438128 C77.6278263,42.9438128 66.1069336,56.2840159 66.1069336,56.2840159 C65.0460209,57.3449286 64.895467,59.1642391 66.1069336,60.2251518 L71.716826,65.2272004 C73.0802536,66.440074 74.7476031,66.1375591 75.6579619,64.9246855 C78.688739,61.5899864 84.1466704,56.4359769 93.2418158,56.4359769 C102.186407,56.4359769 110.523155,62.8028601 110.523155,72.9589181 C110.523155,81.9021026 103.399281,89.1793445 89.148719,89.1793445 L80.6600104,89.1793445 C78.538185,89.1793445 77.6278263,90.0882962 77.6278263,92.3620826 L77.6278263,98.8809267 C77.6278263,101.002752 78.8406999,102.063665 80.5080495,102.063665 L88.998165,102.063665 C105.217184,102.063665 112.948902,110.704334 112.948902,119.79948 C112.948902,129.956945 103.853757,136.171867 94.0002136,136.171867"/><path fill="#FFF" fill-rule="nonzero" d="M0,96.2666667 C0,69.6 10.9333333,45.3333333 28.2666667,28 C45.3333333,10.9333333 69.6,0 96.2666667,0 C123.2,0 142.666667,9.06666667 160.8,24.8 C162.933333,26.9333333 163.2,30.1333333 161.066667,32.2666667 L153.866667,39.4666667 C152,41.8666667 149.6,41.8666667 146.933333,39.2 C133.066667,27.2 114.133333,19.2 96,19.2 C74.9333333,19.2 56.5333333,28 43.2,41.8666667 C29.8666667,56 21.6,75.4666667 21.6,96 C21.6,116.533333 29.8666667,135.733333 43.2,149.6 C56.5333333,163.733333 74.9333333,172.533333 96,172.533333 C107.733333,172.533333 117.066667,170.133333 125.066667,166.4 C133.066667,162.666667 139.733333,157.866667 146.933333,152.533333 C148.266667,151.466667 149.6,150.933333 150.666667,150.933333 C151.466667,150.933333 152.533333,151.2 153.333333,151.733333 L161.333333,158.933333 C163.466667,160.8 162.933333,164.266667 161.066667,166.133333 C142.933333,184 120,192 96.2666667,192 C69.6,192 45.3333333,181.333333 28.2666667,164 C10.9333333,146.933333 0,122.933333 0,96.2666667 Z"/></g></svg>