<svg xmlns="http://www.w3.org/2000/svg" viewBox="0 0 188 127">
    <g fill="none" fill-rule="evenodd">
        <g fill-rule="nonzero" transform="translate(0 75)">
            <path fill="#7B999E" d="M50.182148,35.3320048 C50.8842768,35.8469898 51.0247026,36.584125 50.7338206,37.5232152 C49.9815398,39.9769669 47.2733287,42.3701321 45.1167903,43.5313726 C44.1538708,45.4903349 43.8830497,47.1463648 44.9763645,47.2271468 C46.0395881,47.3079287 47.5541802,46.0961995 48.5271301,44.7027109 C48.7277384,44.1170418 49.0788028,43.4808839 49.6003841,42.8649216 C51.5663448,40.5121473 53.4721229,39.6134481 54.6858027,39.6134481 C55.7289655,39.6134481 56.2104252,40.2698015 56.1602732,41.0473277 C56.4712159,40.562636 56.7620978,40.1486285 57.032919,39.8255007 C57.253588,39.5629594 57.4441658,39.5225684 57.6146828,39.7043278 C57.985808,40.0577488 58.1763859,40.916057 57.594622,41.9157337 C57.0630102,42.8144328 55.8493304,44.3088989 55.2675666,45.369162 C54.6557115,46.4900115 54.6356506,47.3483197 55.4581444,47.3079287 C56.2003948,47.2776355 57.1332231,46.510207 57.9155952,45.5408236 C57.765139,44.7834928 57.9557168,43.9756734 58.5575415,43.5717636 C58.8484234,43.3698087 59.0490316,43.4505907 59.0690925,43.7737185 C59.0991837,43.9251846 59.0991837,44.0867485 59.1192445,44.2483124 C60.1122552,43.1274629 61.2055701,41.8349517 61.9076989,40.8150796 C62.0280638,40.0375534 62.2687937,39.6639368 62.7803447,39.2802226 C63.3119565,38.8763128 63.8636291,38.7955309 64.0842981,38.9772903 C64.325028,39.1792451 64.2046631,39.4013955 63.8937203,39.855794 C63.7934162,39.9769669 63.7232033,40.0981398 63.6228992,40.2395082 C63.4523822,42.0772976 63.9137811,43.6323501 63.8435683,45.0056432 C63.7934162,45.7831695 63.6228992,46.6212822 62.7502534,47.0958761 C63.813477,46.7626506 64.6159099,46.1264927 65.2177346,45.4297484 C65.0973697,44.7027109 65.2979779,43.9453801 65.8697114,43.5616659 C66.1605933,43.359711 66.3612015,43.4404929 66.3812623,43.7636207 C66.4113536,43.9150869 66.4113536,44.0766508 66.4314144,44.2382147 C67.4244251,43.1173652 68.51774,41.824854 69.2198688,40.8049819 C69.3402337,40.0274556 69.5809636,39.6538391 70.0925145,39.2701248 C70.6241263,38.8662151 71.175799,38.7854331 71.396468,38.9671925 C71.6371979,39.1691474 71.516833,39.3912978 71.2058902,39.8456962 C71.1055861,39.9668692 71.0353732,40.0880421 70.9350691,40.2294105 C70.7645521,42.0671998 71.225951,43.6222523 71.1557381,44.9955455 C71.1055861,45.7730717 70.9350691,46.6111844 70.0624233,47.0857784 C71.2761031,46.7121619 72.1487489,45.9548311 72.760604,45.1470116 C72.7906952,45.0662297 72.810756,44.9854477 72.8508777,44.894568 C73.4527023,43.4404929 75.0575682,41.0877187 75.9502748,40.0476511 C76.1709438,39.8053053 76.3414608,39.7447188 76.5320386,39.9264782 C76.9031638,40.2395082 77.0937417,41.0978164 76.5119778,42.097493 C76.0004268,42.9759967 74.9873553,44.3290944 74.4758043,45.328771 C73.8940404,46.4900115 73.9441925,47.2675378 74.7165342,47.2271468 C75.7496665,47.1867558 77.003468,46.0053198 77.7457184,44.7027109 C77.8159313,44.0968463 78.0466307,43.4505907 78.4478472,42.7942374 C79.9925305,40.2798992 82.4399509,39.2095384 83.6536307,39.8053053 C84.3056074,40.128433 84.6967935,40.4515608 84.9876754,40.9059593 C85.4992264,41.744072 84.5262765,42.7942374 84.0448167,43.8746959 C83.9445126,44.1170418 83.8442085,44.1776282 83.5332658,44.0362598 C82.9515019,43.793914 82.6104679,43.1981471 82.9515019,42.2994479 C83.2122926,41.5825081 83.9445126,40.7241999 83.6034786,40.5020496 C83.1922318,40.2294105 81.3767273,41.5017262 80.2834125,43.31932 C78.9493678,45.5711168 79.4609187,47.2271468 80.8852372,47.2473423 C82.7508937,47.2675378 84.3657899,45.9144401 85.3888919,44.7229064 C85.5895001,44.1170418 85.9405645,43.4707862 86.4721763,42.8346283 C88.4381369,40.4818541 90.3439151,39.5831549 91.5575948,39.5831549 C92.6007576,39.5831549 93.0822174,40.2395082 93.0320653,41.0170345 C93.3430081,40.5323428 93.63389,40.1183353 93.9047111,39.7952075 C94.1253801,39.5326662 94.315958,39.4922752 94.486475,39.6740346 C94.8576002,40.0274556 95.048178,40.8857638 94.4664141,41.8854404 C93.9348023,42.7841396 92.7211226,44.2786057 92.1393587,45.3388687 C91.5275036,46.4597183 91.5074428,47.3180265 92.3299365,47.2776355 C93.2226431,47.2473423 94.4062317,46.1264927 95.2487862,44.8844703 C95.268847,44.7935906 95.268847,44.7128086 95.2989383,44.6118312 C96.2016753,41.1382074 98.9600384,37.5232152 101.42752,35.4127868 L101.409149,35.4307625 L101.505457,35.3518817 C101.83056,35.1050142 102.140591,35.0933309 102.450622,35.3320048 C103.14268,35.8469898 103.293176,36.584125 103.002294,37.5232152 C102.250013,39.9769669 99.5418023,42.3701321 97.3852638,43.5313726 C96.4223443,45.4903349 96.1515232,47.1463648 97.2448381,47.2271468 C98.4083658,47.297831 100.103505,45.8639514 101.046364,44.3290944 C101.216881,44.066553 101.477672,44.0463576 101.577976,44.3290944 C101.698341,44.6522222 101.598037,45.0965229 101.337246,45.5711168 C100.996212,46.1668837 99.2308595,47.8229137 97.2949901,47.7825227 C96.1715841,47.7522295 95.4193032,47.297831 95.1986342,46.3587408 C94.4463533,47.2170491 93.2527344,47.9339888 92.1694499,47.8835001 C90.8654965,47.8229137 90.1834285,47.1867558 90.1834285,46.2476657 C89.4110868,47.0655829 88.317772,47.8027182 87.1542443,47.8027182 C85.9907165,47.8027182 85.3086486,47.1160716 85.198314,46.116395 C84.1852425,47.0756806 82.540255,47.8027182 80.95545,47.8229137 C79.2904017,47.8431092 78.2271781,47.1160716 77.8460225,46.0457108 C77.0636504,47.1160716 75.6894841,47.8229137 74.4457131,47.8229137 C73.3122766,47.8229137 72.7004215,47.338222 72.5599957,46.5808912 C71.6371979,47.3685152 70.3934269,47.8027182 69.1195646,47.8431092 C67.715307,47.8835001 66.3612015,47.5906656 65.5387078,46.3486431 C65.5286774,46.3486431 65.5286774,46.3284476 65.5286774,46.3284476 C64.5757883,47.2675378 63.2317132,47.7926204 61.8174252,47.8431092 C60.4432588,47.8835001 59.1192445,47.5906656 58.2867204,46.4193273 C57.5344395,47.2473423 56.3608814,47.9339888 55.3076882,47.8835001 C54.0037347,47.8229137 53.3216668,47.1867558 53.3216668,46.2476657 C52.5493251,47.0655829 51.4560102,47.8027182 50.2924825,47.8027182 C49.2091981,47.8027182 48.547191,47.2170491 48.3666435,46.3385454 C47.6043323,47.0251919 46.3605613,47.8128159 45.0164862,47.7825227 C43.3514379,47.7421317 42.4487008,46.7828461 43.0104039,44.6320267 C43.9131409,41.1584029 46.671504,37.5434107 49.1389852,35.4329823 C49.50008,35.1098545 49.841114,35.0694635 50.182148,35.3320048 Z M42.7997652,35.2916139 C43.331377,35.6652304 43.8930801,36.2508995 44.0836579,36.7456889 C44.2942965,37.3212603 44.2240837,37.886734 43.8629888,38.5026963 L43.8730193,38.5026963 C43.501894,39.1287564 43.1708905,39.9062827 42.9000694,40.4818541 C42.8298565,40.643418 42.6593395,40.7645909 42.3684576,40.603027 C41.8067545,40.3000947 41.4255989,39.6841323 41.7866937,38.6844557 C42.1778797,37.6241926 43.0505255,36.4831476 42.4888225,36.0085537 C41.8067545,35.4127868 38.1255936,37.0284258 35.9489943,39.9971624 C33.8225471,42.9154103 34.063277,45.8639514 35.2468655,46.6616732 C36.8015793,47.7017407 39.3693646,46.3587408 41.2049298,43.3900042 C41.3252948,43.1678539 41.5961159,43.1678539 41.7164808,43.4303952 C42.3183055,44.7733951 40.7635917,46.2678612 39.7505202,46.863628 C38.0353199,47.8835001 35.9991463,47.8633046 34.6951929,47.2877333 C33.601878,46.8131393 32.6590194,45.5711168 32.6088673,43.9352824 C32.5085632,39.7043278 36.8216401,36.0893356 39.5298511,35.2310274 C40.8338046,34.8170199 42.0274236,34.736238 42.7997652,35.2916139 Z M88.0870725,43.6323501 C86.8459763,45.2917459 86.5140477,46.9888849 87.3449788,47.1184263 L87.4331486,47.1257625 L87.5560996,47.12154 C88.4837441,47.0387546 89.6262514,45.9077492 90.7545799,44.3434015 L90.9156485,44.1170418 C92.440271,41.9157337 92.6609401,40.6838089 91.9588113,40.6232225 C91.1864696,40.562636 89.4211172,41.8551472 88.0870725,43.6323501 Z M51.2253108,43.6323501 C49.9842146,45.2917459 49.6522859,46.9888849 50.4832171,47.1184263 L50.5721486,47.1257625 L50.6943379,47.12154 C51.6219823,47.0387546 52.7644896,45.9077492 53.8928182,44.3434015 L54.0538868,44.1170418 C55.5785093,41.9157337 55.7991784,40.6838089 55.0970496,40.6232225 C54.3247079,40.562636 52.5593555,41.8551472 51.2253108,43.6323501 Z M69.1596863,42.0772976 C68.4575575,43.1375606 67.5648509,44.2281169 66.642053,45.3085755 C67.0031478,46.469816 67.7052766,47.2877333 68.5077095,47.0857784 C69.6210852,46.8030416 69.2599904,43.672741 69.1596863,42.0772976 Z M61.8475164,42.0772976 C61.1453876,43.1375606 60.252681,44.2281169 59.3298832,45.3085755 C59.690978,46.469816 60.3931068,47.2877333 61.1955397,47.0857784 C62.3089153,46.8030416 61.9478205,43.672741 61.8475164,42.0772976 Z M46.1398922,41.6935833 C45.9192232,42.0167111 45.7286454,42.3297412 45.5581284,42.6528689 C48.8781945,40.4414631 50.2323001,37.2505761 49.9213573,37.0890122 C49.6003841,36.9274483 47.8149709,39.1388542 46.1398922,41.6935833 Z M98.4284266,41.6935833 C98.2077576,42.0167111 98.0171797,42.3297412 97.8466628,42.6528689 C101.166729,40.4414631 102.520834,37.2505761 102.209892,37.0890122 C101.888919,36.9274483 100.103505,39.1388542 98.4284266,41.6935833 Z M77.003468,37.9069295 C77.394654,37.5636062 78.0967828,37.805952 78.4077256,38.3411324 C78.7186683,38.8561174 78.5481513,39.3912978 78.2372086,39.6740346 L78.2372086,39.6841323 C77.9262658,39.9567714 77.2441978,39.8961849 76.883103,39.3812 C76.491917,38.8460196 76.6122819,38.2502527 77.003468,37.9069295 Z M122.110228,39.734621 C122.862509,39.6942301 123.273756,39.8759895 123.755215,40.4111699 C124.306888,41.0271322 125.029078,41.1685006 124.888652,42.6023802 C124.858561,42.7538464 124.858561,42.8952148 124.8385,43.0567787 C124.978925,43.0567787 125.129382,43.0163877 125.319959,43.0163877 L125.319959,43.0264855 C125.490476,43.0264855 125.490476,43.1274629 125.390172,43.2284403 C125.219655,43.3900042 124.978925,43.4707862 124.738196,43.4909817 C124.236675,45.1874026 122.712052,47.2069513 120.916609,47.7017407 C120.043963,47.9440866 118.840314,47.8633046 117.867364,46.8232371 C116.80414,45.6619965 117.165235,43.9251846 118.25855,42.3297412 C119.181348,40.9766435 120.655818,39.815403 122.110228,39.734621 Z M113.654591,35.2310274 C114.958545,34.8170199 116.152163,34.736238 116.924505,35.2916139 C117.456117,35.6652304 118.01782,36.2508995 118.208398,36.7456889 L118.218428,36.7456889 C118.429067,37.3212603 118.358854,37.886734 117.997759,38.5026963 C117.626634,39.1287564 117.29563,39.9062827 117.024809,40.4818541 C116.954596,40.643418 116.784079,40.7645909 116.493197,40.603027 C115.931494,40.3000947 115.550339,39.6841323 115.911434,38.6844557 C116.30262,37.6241926 117.175265,36.4831476 116.613562,36.0085537 C115.931494,35.4127868 112.250333,37.0284258 110.073734,39.9971624 C107.947287,42.9154103 108.188017,45.8639514 109.371605,46.6616732 C110.926319,47.7017407 113.494104,46.3587408 115.32967,43.3900042 C115.450035,43.1678539 115.720856,43.1678539 115.841221,43.4303952 C116.443045,44.7733951 114.888332,46.2678612 113.87526,46.863628 C112.16006,47.8835001 110.123886,47.8633046 108.819933,47.2877333 C107.726618,46.8131393 106.783759,45.5711168 106.733607,43.9352824 C106.633303,39.7043278 110.94638,36.0893356 113.654591,35.2310274 Z M121.568586,41.2088916 C120.916609,41.6733878 120.21448,42.3297412 119.702929,43.0870719 C118.679827,44.6017335 118.318732,46.4395228 118.950648,46.8737258 C119.622686,47.338222 121.107187,46.6414777 122.290775,44.8036883 L122.300806,44.8036883 C122.6619,44.2483124 122.952782,43.6828388 123.14336,43.2082448 C122.972843,43.1476584 122.832417,43.0668764 122.681961,42.965899 C122.17041,42.6427712 121.588646,41.9460269 121.568586,41.2088916 Z M123.504455,41.1987939 C123.38409,40.562636 122.90263,40.6838089 122.782265,41.2593803 C122.6619,41.7945607 122.922691,42.3701321 123.313877,42.6730644 C123.504455,42.0571021 123.574668,41.5623126 123.504455,41.1987939 Z M149.142186,39.7548165 C149.382916,39.4922752 149.603585,39.5326662 149.72395,39.775012 C149.854346,40.0375534 149.894467,40.3303879 149.874406,40.6737112 C150.93763,39.9062827 152.361948,39.3509068 153.405111,40.249606 C154.558609,41.2694781 154.026997,43.0466809 153.13429,44.6825154 C152.40207,46.0053198 151.509363,46.9646055 150.586566,47.4190039 C152.963773,47.3079287 154.418183,45.8639514 155.190524,44.5108538 C155.340981,44.2281169 155.601771,44.3088989 155.651923,44.5108538 L155.641893,44.500756 C155.692045,44.6724177 155.742197,45.1975003 155.33095,45.8134627 C154.408152,47.1867558 152.763165,47.8431092 151.017873,47.9440866 C149.47319,48.0248685 148.450088,47.8431092 147.607533,47.2069513 C147.095983,46.8333348 146.855253,46.3688386 146.78504,45.8740492 C145.651603,47.5906656 144.417863,49.6304098 143.254335,51.8418156 C143.154031,52.023575 142.993544,52.063966 142.843088,51.8822066 C142.481993,51.4681991 142.361628,50.9128232 142.823027,49.6909962 C143.545217,47.7522295 147.617564,41.431042 149.142186,39.7548165 Z M141.248253,35.1805387 C142.65251,34.7867267 143.85616,35.008877 144.538228,35.5844484 C147.547351,36.664907 146.865283,40.5929293 145.049779,43.3496133 L145.049779,43.3395155 C143.083818,46.3183499 140.034573,48.6509286 136.744598,47.651252 C134.758577,47.0453874 133.986235,45.5509214 133.986235,43.9150869 C133.986235,39.6740346 138.50995,35.9782604 141.248253,35.1805387 Z M144.056768,36.0691401 C142.863149,35.7056214 139.793843,37.0688167 137.51694,39.9769669 C135.199915,42.9558013 135.149763,46.3284476 136.79475,46.904019 C138.389585,47.4593949 141.248253,45.8639514 143.284426,42.7942374 C145.481086,39.461982 145.390813,36.4730499 144.056768,36.0691401 Z M152.191431,40.4515608 C151.609668,40.209215 150.105106,41.2088916 148.971669,42.7437486 C148.700848,43.1072674 148.440058,43.4606884 148.149176,43.8847937 C147.547351,45.1470116 147.416956,46.3486431 148.099024,46.8030416 C148.881396,47.3180265 150.45617,45.8639514 151.589607,43.9453801 C152.532465,42.3499366 152.793256,40.6939067 152.191431,40.4515608 Z M130.69626,42.0369066 C129.582884,42.0369066 127.787441,42.2590569 126.483487,42.1984705 C126.212666,42.178275 126.192605,42.2994479 126.242757,42.4812073 C126.393213,43.0769742 126.874673,43.5010794 128.00811,43.5414704 C129.121485,43.5818614 130.475591,43.2385381 132.240943,43.359711 C132.511764,43.3799065 132.551886,43.2587336 132.511764,43.0769742 C132.361308,42.5014028 131.90994,42.0369066 130.69626,42.0369066 L130.69626,42.0369066 Z" />
            <path fill="#263333" d="M22.0167529,16.2472694 L22.8091554,16.2472694 L22.8091554,25.1029906 L22.0167529,25.1029906 C21.7960839,24.0932162 21.3948674,23.2046148 20.8131036,22.4371863 C18.6064131,24.9515244 15.7878675,26.2036446 12.3474364,26.2036446 C8.71642747,26.2036446 5.75745612,25.0525019 3.45046151,22.7401186 C1.14346689,20.4277353 0,17.368119 0,13.5713674 C0,11.0772247 0.531611802,8.72445047 1.59483541,6.51304462 C2.65805901,4.30163877 4.14255989,2.66580431 6.03830763,1.60554123 C7.93405538,0.535180411 10.0203809,0 12.2972843,0 C14.1729712,0 15.8681108,0.383714257 17.3927333,1.16124051 C18.9173558,1.93876677 20.0507923,2.79707498 20.8131036,3.74626287 C21.3447154,2.6859998 21.6656885,1.59544349 21.776023,0.464496205 L22.5884864,0.464496205 L22.8091554,10.0472549 L22.0167529,10.0472549 C21.4650803,6.64431529 20.3316438,4.27134554 18.6164435,2.94854113 C16.9112735,1.61563898 14.9754042,0.949187898 12.8288961,0.949187898 C10.2009283,0.949187898 8.11460279,2.01954872 6.55988903,4.1703681 C5.01520568,6.32118749 4.23283359,9.39090154 4.23283359,13.3997058 C4.23283359,17.1863596 5.07538814,20.0945098 6.77052766,22.1140585 C8.46566718,24.1336072 10.5620232,25.1433816 13.0796564,25.1433816 C14.4237315,25.1433816 15.7978979,24.810156 17.2121859,24.1538027 C18.6164435,23.4974493 19.7298191,22.3765998 20.5523129,20.8114495 C21.3748066,19.2462993 21.8562663,17.72154 22.0067225,16.2573672 L22.0167529,16.2472694 Z M26.7109854,18.074961 C26.7109854,15.7423823 27.4933575,13.78342 29.0480713,12.208172 C30.602785,10.632924 32.5185936,9.85539775 34.7854666,9.85539775 C37.0523395,9.85539775 38.9882089,10.6430217 40.5429227,12.2182698 C42.0976365,13.7935178 42.8800085,15.7423823 42.8800085,18.074961 C42.8800085,20.6498857 42.087606,22.6694344 40.5128315,24.1437049 C38.9380569,25.6179755 37.0222483,26.3551108 34.795497,26.3551108 C32.5687457,26.3551108 30.6629675,25.6078778 29.0881929,24.1134117 C27.5134183,22.6189457 26.7310463,20.6094947 26.7310463,18.0850588 L26.7109854,18.074961 Z M29.7903217,18.1658407 C29.7903217,20.872036 30.2316598,22.7704118 31.1043056,23.8609681 C31.9769514,24.9515244 33.210692,25.4968026 34.7854666,25.4968026 C36.3602412,25.4968026 37.6441338,24.9515244 38.4967188,23.8609681 C39.3493037,22.7704118 39.7806114,20.872036 39.7806114,18.1658407 C39.7806114,15.4596454 39.3593342,13.5713674 38.5067492,12.4202246 C37.6541642,11.2791796 36.4103932,10.7036082 34.7854666,10.7036082 C33.1605399,10.7036082 31.9267993,11.2690819 31.0742144,12.4101269 C30.211599,13.5511719 29.7903217,15.4596454 29.7903217,18.155743 L29.7903217,18.1658407 Z M50.5833645,13.743029 C51.0046417,12.6322772 51.6867097,11.7133826 52.6295684,10.9661495 C53.572427,10.2189165 54.4952249,9.84530001 55.3979619,9.84530001 C56.2104252,9.84530001 56.8523716,10.0977436 57.3238009,10.6127285 C57.7952302,11.1176157 58.0259297,11.6426984 58.0259297,12.1778788 C58.0259297,12.5413975 57.9055647,12.8443299 57.6648349,13.1068712 C57.424105,13.3694125 57.1332231,13.5006832 56.7821587,13.5006832 C56.1602732,13.5006832 55.6988742,13.036187 55.3779011,12.1172923 C55.157232,11.4912322 54.8262285,11.1882999 54.3748599,11.1882999 C53.8432481,11.1882999 53.2113322,11.5518187 52.4690818,12.2788562 C51.7268314,13.0058938 51.255402,13.7632245 51.0447634,14.5407508 C50.8341247,15.3283748 50.7338206,16.3987356 50.7338206,17.761931 L50.7338206,20.478224 C50.7338206,22.1039607 50.7538814,23.1339306 50.7940031,23.5580358 C50.8341247,23.982141 51.0146721,24.3052688 51.3256149,24.5274192 C51.6365576,24.7495696 52.1882303,24.8606447 52.9706024,24.8606447 L53.4921837,24.8606447 L53.4921837,25.7189529 L45.4377634,25.7189529 L45.4377634,24.8606447 L45.8289495,24.8606447 C46.5711999,24.8606447 47.0927813,24.7596673 47.4137545,24.5577124 C47.7246972,24.3557576 47.915275,24.062923 47.9754575,23.6893065 C48.03564,23.31569 48.0657312,22.2453291 48.0657312,20.4883218 L48.0657312,16.186683 C48.0657312,14.5508485 48.0456704,13.5208787 47.9955183,13.1068712 C47.9453663,12.6928637 47.7748493,12.3697359 47.4639065,12.1374878 C47.1529638,11.9052397 46.6012911,11.7941645 45.8189191,11.7941645 L45.427733,11.7941645 L45.427733,10.9560518 C46.5912607,10.8146834 48.1058529,10.4511646 49.9815398,9.85539775 C50.3426346,10.8348789 50.5332124,12.1374878 50.573334,13.7531268 L50.5833645,13.743029 Z M64.3350584,9.85539775 L64.836579,9.85539775 C65.1174305,10.6228263 65.2779171,11.6729916 65.3180387,13.0058938 C66.2107453,11.9456307 67.1335432,11.1580067 68.1165235,10.6430217 C69.0894734,10.1179391 70.1125754,9.85539775 71.1657686,9.85539775 C72.3794483,9.85539775 73.3624286,10.1078413 74.1347703,10.6228263 C74.907112,11.1277134 75.3986021,11.7537735 75.6293016,12.4909088 C75.8499707,13.2280441 75.9603052,14.3085027 75.9603052,15.7221868 L75.9603052,20.4984195 C75.9603052,22.2655246 75.9903964,23.3358854 76.0505789,23.7195997 C76.1107614,24.103314 76.3113696,24.3961485 76.6323427,24.5880057 C76.9633463,24.7798628 77.565171,24.8808402 78.4378168,24.8808402 L78.4378168,25.7391484 L70.6843088,25.7391484 L70.6843088,24.8808402 L71.0353732,24.8808402 C71.9280798,24.8808402 72.4998133,24.7495696 72.7806648,24.4870282 C73.0514859,24.2244869 73.2019421,23.9215546 73.2420637,23.5782313 C73.2821853,23.234908 73.3022462,22.2049382 73.3022462,20.4984195 L73.3022462,15.5808184 C73.3022462,14.3791869 73.2420637,13.5107809 73.1216988,12.995796 C73.0013338,12.4808111 72.6903911,12.0264126 72.1788401,11.6225029 C71.6672891,11.2286909 71.0153124,11.026736 70.2229099,11.026736 C69.3201729,11.026736 68.4575575,11.2993751 67.6450942,11.8345555 C66.8326308,12.3697359 66.0502588,13.1876531 65.3180387,14.2681117 L65.3180387,20.4984195 C65.3180387,22.2655246 65.34813,23.3358854 65.4183428,23.7195997 C65.4885557,24.103314 65.6791335,24.3961485 66.0101371,24.5880057 C66.3411407,24.7798628 66.9429654,24.8808402 67.835672,24.8808402 L67.835672,25.7391484 L60.1724377,25.7391484 L60.1724377,24.8808402 C61.0250227,24.8808402 61.6168169,24.7899605 61.9478205,24.6182989 C62.2788241,24.4466372 62.4894627,24.1840959 62.569706,23.8306749 C62.6499493,23.4772539 62.690071,22.3665021 62.690071,20.5085172 L62.690071,15.9645326 C62.690071,14.1873298 62.6599797,13.1068712 62.5897668,12.7332547 C62.519554,12.3495404 62.3289762,12.0668036 61.9979726,11.8749465 C61.666969,11.6830893 61.0651443,11.5821119 60.1724377,11.5821119 L60.1724377,10.7238037 C61.5265432,10.5723375 62.9207704,10.2896007 64.3350584,9.86549549 L64.3350584,9.85539775 Z M94.4062317,15.6313071 L83.8341781,15.6313071 C83.784026,16.3684424 83.7639652,16.9137205 83.7639652,17.2671415 C83.7639652,19.9531413 84.1852425,21.9625923 85.0177666,23.31569 C85.8502908,24.6586899 87.0940618,25.3352387 88.7490797,25.3352387 C90.9958918,25.3352387 92.5907272,24.3254643 93.5235555,22.2958179 L94.4162621,22.2958179 C94.025076,23.5580358 93.2326735,24.5577124 92.0691458,25.2645545 C90.9056181,25.9713965 89.6217254,26.3349153 88.2375287,26.3349153 C86.953636,26.3349153 85.7399563,26.0117875 84.5964894,25.3554342 C83.4530225,24.6990808 82.5201942,23.7801862 81.7879742,22.5886524 C81.0557541,21.3971187 80.6946593,19.9531413 80.6946593,18.2466227 C80.6946593,15.833262 81.3967881,13.8339087 82.8010457,12.2384652 C84.2053033,10.6430217 85.9706557,9.84530001 88.0770421,9.84530001 C90.0630635,9.84530001 91.5977165,10.4511646 92.6910313,11.6729916 C93.7843462,12.8948186 94.3560796,14.2075252 94.4162621,15.6212093 L94.4062317,15.6313071 Z M91.1563784,14.8840741 C91.1965,14.6013372 91.2165608,14.3387959 91.2165608,14.1166455 C91.2165608,13.0260892 90.8955877,12.1778788 90.2636718,11.5720142 C89.6317559,10.9661495 88.8493838,10.6632172 87.9265859,10.6632172 C85.6797738,10.6632172 84.3356987,12.0668036 83.904391,14.8739763 L91.1664088,14.8739763 L91.1563784,14.8840741 Z M102.15974,13.743029 C102.581017,12.6322772 103.263085,11.7133826 104.205944,10.9661495 C105.148802,10.2189165 106.0716,9.84530001 106.974337,9.84530001 C107.7868,9.84530001 108.428747,10.0977436 108.900176,10.6127285 C109.371605,11.1176157 109.602305,11.6426984 109.602305,12.1778788 C109.602305,12.5413975 109.48194,12.8443299 109.24121,13.1068712 C109.00048,13.3694125 108.709598,13.5006832 108.358534,13.5006832 C107.736648,13.5006832 107.275249,13.036187 106.954276,12.1172923 C106.733607,11.4912322 106.402604,11.1882999 105.951235,11.1882999 C105.419623,11.1882999 104.787707,11.5518187 104.045457,12.2788562 C103.303207,13.0058938 102.831777,13.7632245 102.621139,14.5407508 C102.4105,15.3283748 102.310196,16.3987356 102.310196,17.761931 L102.310196,20.478224 C102.310196,22.1039607 102.330257,23.1339306 102.370378,23.5580358 C102.4105,23.982141 102.591047,24.3052688 102.90199,24.5274192 C103.212933,24.7495696 103.764605,24.8606447 104.546978,24.8606447 L105.068559,24.8606447 L105.068559,25.7189529 L97.0141386,25.7189529 L97.0141386,24.8606447 L97.4053247,24.8606447 C98.1475751,24.8606447 98.6691565,24.7596673 98.9901296,24.5577124 C99.3010724,24.3557576 99.4916502,24.062923 99.5518327,23.6893065 C99.6120152,23.31569 99.6421064,22.2453291 99.6421064,20.4883218 L99.6421064,16.186683 C99.6421064,14.5508485 99.6220456,13.5208787 99.5718935,13.1068712 C99.5217415,12.6928637 99.3512245,12.3697359 99.0402817,12.1374878 C98.729339,11.9052397 98.1776663,11.7941645 97.3952942,11.7941645 L97.0041082,11.7941645 L97.0041082,10.9560518 C98.1676359,10.8146834 99.682228,10.4511646 101.557915,9.85539775 C101.91901,10.8348789 102.109588,12.1374878 102.149709,13.7531268 L102.15974,13.743029 Z M111.578296,26.2137424 L111.578296,21.1951638 L112.300486,21.1951638 C113.14304,24.0932162 114.637571,25.5371936 116.80414,25.5371936 C117.736968,25.5371936 118.439097,25.2544567 118.900496,24.6788853 C119.361895,24.103314 119.592595,23.4772539 119.592595,22.800705 C119.592595,22.0029833 119.341834,21.3567277 118.850344,20.8417428 C118.348824,20.3368556 117.365843,19.7208932 115.911434,18.9938557 C114.376781,18.2365249 113.283466,17.4892919 112.611428,16.7622544 C111.949421,16.0453146 111.608387,15.1567131 111.608387,14.0964501 C111.608387,13.036187 111.969482,12.1273901 112.681641,11.2185931 C113.3938,10.3097962 114.406872,9.84530001 115.700795,9.84530001 C116.994718,9.84530001 118.118124,10.3905782 118.980739,11.4710367 C119.161287,11.2892773 119.402017,10.8348789 119.702929,10.1078413 L120.384997,10.1078413 L120.384997,14.8234876 L119.702929,14.8234876 C119.452169,13.6925403 118.980739,12.7231569 118.26858,11.9052397 C117.556421,11.0873225 116.723897,10.6834127 115.760977,10.6834127 C115.018727,10.6834127 114.426933,10.9156608 113.965534,11.3700593 C113.504135,11.8345555 113.283466,12.3596382 113.283466,12.9756005 C113.283466,13.6420516 113.534226,14.2277207 114.045777,14.7124124 C114.537267,15.2072019 115.480126,15.7726755 116.874353,16.4088333 C118.970709,17.368119 120.254602,18.2971114 120.726031,19.2059083 C121.19746,20.124803 121.42816,21.0033067 121.42816,21.8515171 C121.42816,23.1844193 120.996852,24.2648779 120.124206,25.0928928 C119.251561,25.9209078 118.158246,26.345013 116.834231,26.345013 C115.440004,26.345013 114.196233,25.7694417 113.112949,24.6082011 C112.781945,24.9818177 112.511124,25.5169981 112.300486,26.2137424 L111.578296,26.2137424 L111.578296,26.2137424 Z M133.093528,11.3195706 L128.519661,11.3195706 L128.519661,20.5489082 C128.519661,21.9625923 128.579843,22.921878 128.700208,23.4065697 C128.820573,23.8912613 129.081364,24.2951711 129.48258,24.5880057 C129.883797,24.890938 130.315104,25.0323064 130.766473,25.0323064 C131.659179,25.0323064 132.421491,24.5274192 133.083498,23.5075471 L133.675292,23.8609681 C133.294136,24.6788853 132.732433,25.2948477 131.980153,25.7189529 C131.227872,26.1329604 130.475591,26.345013 129.71328,26.345013 C128.820573,26.345013 128.048231,26.0824717 127.376194,25.557389 C126.704156,25.0323064 126.282879,24.4062463 126.122392,23.6994042 C125.951875,22.9925622 125.871632,21.7505397 125.871632,19.9733368 L125.871632,11.3296683 L123.664942,11.3296683 L123.664942,10.4713601 C124.678013,10.4511646 125.58075,10.0169616 126.383183,9.18894667 C127.185616,8.3609317 127.697167,7.18959344 127.917836,5.68502964 L128.50963,5.68502964 L128.50963,10.4713601 L133.083498,10.4713601 L133.083498,11.3296683 L133.093528,11.3195706 Z M135.149763,18.074961 C135.149763,15.7423823 135.932135,13.78342 137.486848,12.208172 C139.041562,10.632924 140.957371,9.85539775 143.224244,9.85539775 C145.491117,9.85539775 147.426986,10.6430217 148.9817,12.2182698 C150.536414,13.7935178 151.318786,15.7423823 151.318786,18.074961 C151.318786,20.6498857 150.526383,22.6694344 148.951609,24.1437049 C147.376834,25.6179755 145.461025,26.3551108 143.234274,26.3551108 C141.007523,26.3551108 139.101745,25.6078778 137.52697,24.1134117 C135.952195,22.6189457 135.169823,20.6094947 135.169823,18.0850588 L135.149763,18.074961 Z M138.219068,18.1658407 C138.219068,20.872036 138.660407,22.7704118 139.533052,23.8609681 C140.405698,24.9515244 141.639439,25.4968026 143.214213,25.4968026 C144.788988,25.4968026 146.072881,24.9515244 146.925466,23.8609681 C147.77805,22.7704118 148.209358,20.872036 148.209358,18.1658407 C148.209358,15.4596454 147.788081,13.5713674 146.935496,12.4202246 C146.082911,11.2791796 144.83914,10.7036082 143.214213,10.7036082 C141.589287,10.7036082 140.355546,11.2690819 139.502961,12.4101269 C138.640346,13.5511719 138.219068,15.4596454 138.219068,18.155743 L138.219068,18.1658407 Z M157.918796,9.85539775 L158.420317,9.85539775 C158.701168,10.6228263 158.861655,11.6729916 158.901777,13.0058938 C159.794483,11.9456307 160.717281,11.1580067 161.700261,10.6430217 C162.673211,10.1179391 163.696313,9.85539775 164.749506,9.85539775 C165.963186,9.85539775 166.946167,10.1078413 167.718508,10.6228263 C168.49085,11.1277134 168.98234,11.7537735 169.21304,12.4909088 C169.433709,13.2280441 169.544043,14.3085027 169.544043,15.7221868 L169.544043,20.4984195 C169.544043,22.2655246 169.574134,23.3358854 169.634317,23.7195997 C169.694499,24.103314 169.895108,24.3961485 170.216081,24.5880057 C170.547084,24.7798628 171.148909,24.8808402 172.021555,24.8808402 L172.021555,25.7391484 L164.268047,25.7391484 L164.268047,24.8808402 L164.619111,24.8808402 C165.511818,24.8808402 166.083551,24.7495696 166.364403,24.4870282 C166.635224,24.2244869 166.78568,23.9215546 166.825802,23.5782313 C166.865923,23.234908 166.885984,22.2049382 166.885984,20.4984195 L166.885984,15.5808184 C166.885984,14.3791869 166.825802,13.5107809 166.705437,12.995796 C166.585072,12.4808111 166.274129,12.0264126 165.762578,11.6225029 C165.251027,11.2286909 164.59905,11.026736 163.806648,11.026736 C162.903911,11.026736 162.041295,11.2993751 161.228832,11.8345555 C160.416369,12.3697359 159.633997,13.1876531 158.901777,14.2681117 L158.901777,20.4984195 C158.901777,22.2655246 158.931868,23.3358854 159.002081,23.7195997 C159.072294,24.103314 159.262871,24.3961485 159.593875,24.5880057 C159.924879,24.7798628 160.526703,24.8808402 161.41941,24.8808402 L161.41941,25.7391484 L153.756176,25.7391484 L153.756176,24.8808402 C154.608761,24.8808402 155.200555,24.7899605 155.531558,24.6182989 C155.862562,24.4466372 156.073201,24.1840959 156.153444,23.8306749 C156.233687,23.4772539 156.273809,22.3665021 156.273809,20.5085172 L156.273809,15.9645326 C156.273809,14.1873298 156.243718,13.1068712 156.173505,12.7332547 C156.103292,12.3495404 155.912714,12.0668036 155.581711,11.8749465 C155.250707,11.6830893 154.648882,11.5821119 153.756176,11.5821119 L153.756176,10.7238037 C155.110281,10.5723375 156.504508,10.2896007 157.918796,9.86549549 L157.918796,9.85539775 Z M187.98997,15.6313071 L177.417916,15.6313071 C177.367764,16.3684424 177.347703,16.9137205 177.347703,17.2671415 C177.347703,19.9531413 177.76898,21.9625923 178.601505,23.31569 C179.434029,24.6586899 180.6778,25.3352387 182.332818,25.3352387 C184.57963,25.3352387 186.174465,24.3254643 187.107293,22.2958179 L188,22.2958179 C187.608814,23.5580358 186.816411,24.5577124 185.652884,25.2645545 C184.489356,25.9713965 183.205463,26.3349153 181.821267,26.3349153 C180.537374,26.3349153 179.323694,26.0117875 178.180227,25.3554342 C177.03676,24.6990808 176.103932,23.7801862 175.371712,22.5886524 C174.639492,21.3971187 174.278397,19.9531413 174.278397,18.2466227 C174.278397,15.833262 174.980526,13.8339087 176.384784,12.2384652 C177.789041,10.6430217 179.554394,9.84530001 181.66078,9.84530001 C183.646801,9.84530001 185.181454,10.4511646 186.274769,11.6729916 C187.368084,12.8948186 187.939818,14.2075252 188,15.6212093 L187.98997,15.6313071 Z M184.750147,14.8840741 C184.790268,14.6013372 184.810329,14.3387959 184.810329,14.1166455 C184.810329,13.0260892 184.489356,12.1778788 183.85744,11.5720142 C183.225524,10.9661495 182.443152,10.6632172 181.520354,10.6632172 C179.273542,10.6632172 177.929467,12.0668036 177.498159,14.8739763 L184.760177,14.8739763 L184.750147,14.8840741 Z" />
        </g>
        <g fill-rule="nonzero" transform="translate(58)">
            <path fill="#DAEDF0" d="M36.296441,27.4584787 C36.296441,27.4584787 36.366783,27.3981856 36.4069784,27.3680391 L60.0318214,13.7217027 L36.3165387,0.0452198186 C36.2160502,-0.0150732729 36.0854152,-0.0150732729 35.9748779,0.0452198186 L12.410328,13.6513608 L36.1557572,27.3579902 C36.1557572,27.3579902 36.2461968,27.4283322 36.2863922,27.4584787 L36.296441,27.4584787 Z" />
            <path fill="#1C2626" d="M71.1759944,29.1064899 L69.8595953,29.1064899 L69.8595953,52.1384508 C69.8595953,53.0428472 69.1863224,53.8166085 68.281926,53.9271458 L39.9039777,57.6050244 L71.1759944,57.6050244 C71.6281926,57.6050244 72,57.233217 72,56.7810188 L72,29.9204466 C72,29.4682484 71.6281926,29.096441 71.1759944,29.096441 L71.1759944,29.1064899 Z M32.6788555,57.6150733 L4.30090719,53.9371947 C3.40655967,53.8166085 2.72323796,53.052896 2.72323796,52.1484997 L2.72323796,29.1165387 L0.824005583,29.1165387 C0.371807397,29.1165387 0,29.4883461 0,29.9405443 L0,56.8011165 C0,57.2533147 0.371807397,57.6251221 0.824005583,57.6251221 L32.6688067,57.6251221 L32.6788555,57.6150733 Z" />
            <path fill="#B0CBCF" d="M36.8591766,28.5337055 L36.8591766,56.1579902 C36.8591766,56.2685276 36.9295185,56.3288207 36.9697139,56.3489184 C37.0099093,56.3690161 37.1003489,56.4092114 37.1907886,56.3489184 L37.1907886,56.3489184 L61.117097,42.5418004 C61.1874389,42.501605 61.2276343,42.4312631 61.2276343,42.3508723 L61.2276343,14.7265876 C61.2276343,14.6160502 61.1572924,14.5557572 61.117097,14.5356595 C61.0969993,14.5256106 61.0568039,14.5055129 61.0065597,14.5055129 C60.9764131,14.5055129 60.9362177,14.5055129 60.8960223,14.5356595 L36.9697139,28.3528262 C36.8993719,28.3930216 36.8591766,28.4633636 36.8591766,28.5437544 L36.8591766,28.5337055 Z M11.3652477,14.8170272 L11.3652477,42.3106769 C11.3652477,42.4111654 11.415492,42.501605 11.5059316,42.5518493 L35.3217027,56.2986741 L35.3217027,56.2986741 C35.4422889,56.3690161 35.5528262,56.3187718 35.6030705,56.2986741 C35.6432659,56.2785764 35.7437544,56.1981856 35.7437544,56.0575017 L35.7437544,28.5638521 C35.7437544,28.4633636 35.6935101,28.3729239 35.6030705,28.3226797 L11.7872994,14.5758548 C11.7872994,14.5758548 11.6868109,14.5356595 11.6466155,14.5356595 C11.5863224,14.5356595 11.5260293,14.5557572 11.5059316,14.5758548 C11.4657362,14.5959525 11.3652477,14.6763433 11.3652477,14.8170272 Z" />
            <path fill="#667F83" d="M39.8034892,56.4896022 L39.8034892,72.5677599 L36.3064899,70.9599442 L32.7692952,72.5677599 L32.7692952,56.4896022 L36.3064899,58.097418 L39.8034892,56.4896022 Z M38.6277739,62.5993022 L38.48709,62.0968597 L36.7988835,62.0968597 L36.7988835,59.7052338 L36.296441,59.554501 L35.7939986,59.7052338 L35.7939986,62.0968597 L34.105792,62.0968597 L33.9651082,62.5993022 L34.105792,63.1017446 L35.7939986,63.1017446 L35.7939986,67.4830426 L36.296441,67.6337753 L36.7988835,67.4830426 L36.7988835,63.1017446 L38.48709,63.1017446 L38.6277739,62.5993022 Z M4.50333119,24.5407754 L4.62247034,24.5443126 L4.62247034,24.5543615 L6.49155618,24.7955338 L6.49155618,47.1039777 C6.49155618,47.8877879 6.98394976,48.5811584 7.7376134,48.8424285 L30.528402,56.2082345 L4.44159107,52.8217725 C4.10997906,52.7715283 3.848709,52.4801117 3.848709,52.1384508 L3.848709,25.2175855 C3.848709,25.0166085 3.92909979,24.8357292 4.07983252,24.7050942 C4.17027216,24.6267132 4.27518214,24.5772729 4.3880508,24.5546027 L4.50333119,24.5407754 Z M68.0608514,24.5242149 C68.2316818,24.5242149 68.3824145,24.584508 68.5130495,24.6950454 C68.6637823,24.8256804 68.7441731,25.0065597 68.7441731,25.2075366 L68.7441731,52.128402 C68.7441731,52.4801117 68.4929518,52.7715283 68.151291,52.8117237 L42.0644801,56.1981856 L64.8653175,48.8323796 C65.6089323,48.5711096 66.1013259,47.877739 66.1013259,47.0939288 L66.1013259,24.7653873 L67.9704117,24.5242149 L68.0608514,24.5242149 Z M8.32044662,19.0576413 C8.4008374,19.0576413 8.48122819,19.0676902 8.56161898,19.0978367 L10.2397767,19.6806699 L10.2397767,42.3106769 C10.2397767,42.8131193 10.5110956,43.2753664 10.9431961,43.5265876 L31.2820656,55.2736916 L8.0893231,47.7772505 L8.0893231,47.7571528 C7.79790649,47.6566643 7.60697837,47.3853454 7.60697837,47.08388 L7.60697837,19.7711096 C7.60697837,19.539986 7.7175157,19.3289602 7.90844382,19.1882763 C8.02903001,19.0978367 8.16971389,19.0576413 8.32044662,19.0576413 Z M64.2523378,19.0676902 C64.3930216,19.0676902 64.5437544,19.1078856 64.6643405,19.1983252 C64.8552687,19.3390091 64.965806,19.5500349 64.965806,19.7811584 L64.965806,47.0939288 C64.965806,47.3953943 64.7748779,47.6667132 64.4935101,47.7672017 L41.3208653,55.2636427 L61.6798325,43.5165387 C62.0918353,43.2753664 62.3531054,42.833217 62.3531054,42.3508723 L62.3531054,19.6806699 L62.3430565,19.6806699 L64.0111654,19.1078856 C64.0915562,19.077739 64.171947,19.0676902 64.2523378,19.0676902 Z M49.7618981,42.903559 C49.9226797,43.164829 49.8322401,43.5165387 49.5609211,43.6672715 L42.3759944,47.8274948 C42.2855548,47.877739 42.1850663,47.8978367 42.0946267,47.8978367 C41.9036985,47.8978367 41.7127704,47.7973482 41.6122819,47.6164689 C41.4515003,47.3551989 41.54194,47.0034892 41.8132589,46.8527565 L48.9981856,42.6925331 L48.9981856,42.702582 C49.2695045,42.5418004 49.6111654,42.6322401 49.7618981,42.903559 Z M25.0919749,43.5466853 L27.5740405,45.023866 L27.5740405,45.0138172 C27.8353105,45.1645499 27.9257502,45.5062107 27.7750174,45.7775297 C27.674529,45.9584089 27.4836008,46.0588974 27.2926727,46.0588974 C27.1921842,46.0588974 27.1017446,46.0387997 27.011305,45.9885555 L24.5292394,44.5113747 C24.2679693,44.360642 24.1775297,44.0189812 24.3282624,43.7476622 C24.4789951,43.4863922 24.820656,43.3859037 25.0919749,43.5466853 Z M57.0372645,33.6586183 C57.1980461,33.9198883 57.1076064,34.271598 56.8362875,34.4223308 L42.3659456,42.7729239 C42.2755059,42.8231682 42.1750174,42.8432659 42.0845778,42.8432659 C41.8936497,42.8432659 41.7027216,42.7427774 41.6022331,42.5618981 C41.4414515,42.3006281 41.5318911,41.9489184 41.80321,41.7981856 L56.273552,33.4475925 L56.273552,33.4576413 C56.5448709,33.2968597 56.8865318,33.3872994 57.0372645,33.6586183 Z M16.3193301,33.4475925 L30.789672,41.7981856 L30.789672,41.7881368 C31.0509421,41.9388695 31.1413817,42.2805304 30.990649,42.5518493 C30.8901605,42.7327285 30.6992324,42.833217 30.5083043,42.833217 C30.4078158,42.833217 30.3173761,42.8131193 30.2269365,42.7628751 L15.7565946,34.4122819 C15.4953245,34.2615492 15.4048849,33.9198883 15.5556176,33.6485694 C15.7063503,33.3872994 16.0480112,33.2868109 16.3193301,33.4475925 Z M16.3193301,38.5021633 L21.6050244,41.5369156 L21.6050244,41.5268667 C21.8662945,41.6775994 21.9567341,42.0192603 21.8060014,42.2905792 C21.7055129,42.4714585 21.5145848,42.571947 21.3236567,42.571947 C21.2231682,42.571947 21.1327285,42.5518493 21.0422889,42.501605 L15.7565946,39.4668528 C15.4953245,39.31612 15.4048849,38.9744592 15.5556176,38.7031403 C15.7063503,38.4418702 16.0480112,38.3413817 16.3193301,38.5021633 Z M57.0372645,28.4533147 C57.1980461,28.7145848 57.1076064,29.0662945 56.8362875,29.2170272 L42.3659456,37.5676204 C42.2755059,37.6178646 42.1750174,37.6379623 42.0845778,37.6379623 C41.8936497,37.6379623 41.7027216,37.5374738 41.6022331,37.3565946 C41.4414515,37.0953245 41.5318911,36.7436148 41.80321,36.5928821 L56.273552,28.2422889 L56.273552,28.2523378 C56.5448709,28.0915562 56.8865318,28.1819958 57.0372645,28.4533147 Z M16.3193301,28.2422889 L30.789672,36.5928821 L30.789672,36.5828332 C31.0509421,36.7335659 31.1413817,37.0752268 30.990649,37.3465457 C30.8901605,37.527425 30.6992324,37.6279135 30.5083043,37.6279135 C30.4078158,37.6279135 30.3173761,37.6078158 30.2269365,37.5575715 L15.7565946,29.2069784 C15.4953245,29.0562456 15.4048849,28.7145848 15.5556176,28.4432659 C15.7063503,28.1819958 16.0480112,28.0815073 16.3193301,28.2422889 Z M57.0473133,23.2178646 C57.2080949,23.4791347 57.1176553,23.8308444 56.8463364,23.9815771 L42.3759944,32.3321703 C42.2855548,32.3824145 42.1850663,32.4025122 42.0946267,32.4025122 L42.0946267,32.4125611 C41.9036985,32.4125611 41.7127704,32.3120726 41.6122819,32.1311933 C41.4515003,31.8699232 41.54194,31.5182135 41.8132589,31.3674808 L56.2836008,23.0168876 C56.5549197,22.8561061 56.8965806,22.9465457 57.0473133,23.2178646 Z M16.3193301,23.0068388 L30.789672,31.357432 L30.789672,31.3473831 C31.0509421,31.4981158 31.1413817,31.8397767 30.990649,32.1110956 C30.8901605,32.2919749 30.6992324,32.3924634 30.5083043,32.3924634 C30.4078158,32.3924634 30.3173761,32.3723657 30.2269365,32.3221214 L15.7565946,23.9715283 C15.4953245,23.8207955 15.4048849,23.4791347 15.5556176,23.2078158 C15.7063503,22.9465457 16.0480112,22.8460572 16.3193301,23.0068388 Z" />
        </g>
    </g>
</svg>