<svg xmlns="http://www.w3.org/2000/svg" viewBox="0 0 187.42 128.58">
    <path d="M41.58,120.09c.6,1.32-.94,2.81-1.96,3.4-1.71,1.01-3.74.99-5.04.42-1.09-.47-2.03-1.7-2.08-3.32-.1-4.19,4.2-7.77,6.9-8.62,1.3-.42,2.49-.49,3.26.06.53.38,1.09.95,1.28,1.44.22.57.15,1.13-.22,1.74-.36.61-.7,1.38-.97,1.96-.07.16-.24.28-.53.12-.55-.3-.94-.91-.58-1.9.39-1.05,1.26-2.17.7-2.65-.68-.59-4.34,1.01-6.52,3.95-2.12,2.88-1.88,5.81-.7,6.6,1.54,1.03,4.1-.3,5.94-3.24.12-.22.39-.22.51.04Z" fill="#7b999e" stroke-width="0" />
    <path d="M44.84,123.82c1.16.08,2.85-1.34,3.79-2.87.17-.26.43-.28.53,0,.12.32.02.75-.24,1.23-.34.59-2.1,2.23-4.03,2.19-1.67-.04-2.56-.99-2-3.12.89-3.44,3.64-7.01,6.11-9.11.36-.32.7-.36,1.04-.1.7.51.84,1.24.55,2.17-.75,2.43-3.45,4.8-5.6,5.95-.96,1.94-1.23,3.58-.14,3.66ZM49.77,113.8c-.31-.16-2.1,2.04-3.77,4.56-.22.32-.41.63-.58.95,3.31-2.19,4.66-5.35,4.35-5.51Z" fill="#7b999e" stroke-width="0" />
    <path d="M56.86,116.49c.22-.26.41-.3.58-.12.36.36.56,1.21-.02,2.19-.53.89-1.74,2.37-2.32,3.42-.6,1.11-.63,1.96.19,1.92.99-.04,2.32-1.38,3.16-2.75.12-.18.29-.2.39-.02s.1.67-.22,1.23c-.63,1.09-2.15,2.17-3.48,2.11-1.3-.06-1.98-.69-1.98-1.62-.77.81-1.86,1.54-3.02,1.54-2.25,0-2.7-2.51-.7-4.9,1.96-2.33,3.86-3.22,5.07-3.22,1.04,0,1.52.65,1.47,1.42.31-.47.6-.89.87-1.21ZM54.93,117.3c-.77-.06-2.53,1.23-3.86,2.98-1.28,1.7-1.59,3.44-.65,3.46.99.02,2.25-1.24,3.48-2.98,1.52-2.17,1.74-3.4,1.04-3.46Z" fill="#7b999e" stroke-width="0" />
    <path d="M61.71,117.48c.12-.77.36-1.15.87-1.52.53-.4,1.09-.47,1.3-.3.24.2.12.42-.19.87-.1.12-.17.24-.27.38-.17,1.82.29,3.36.22,4.72-.05.77-.22,1.6-1.09,2.07,1.62-.49,2.63-1.68,3.23-2.75.12-.22.36-.16.46,0,.1.18.07.69-.34,1.3-.92,1.36-2.56,2.11-4.27,2.17-1.4.04-2.75-.26-3.57-1.48-.58-.89-.51-2.19.31-2.75.29-.2.48-.12.51.2.02.16.02.32.05.47.99-1.11,2.08-2.39,2.78-3.4ZM59.15,121.94c.36,1.15,1.06,1.96,1.86,1.76,1.11-.28.75-3.38.65-4.96-.7,1.05-1.59,2.13-2.51,3.2Z" fill="#7b999e" stroke-width="0" />
    <path d="M69,117.48c.12-.77.36-1.15.87-1.52.53-.4,1.09-.47,1.3-.3.24.2.12.42-.19.87-.1.12-.17.24-.27.38-.17,1.82.29,3.36.22,4.72-.05.77-.22,1.6-1.09,2.07,1.62-.49,2.63-1.68,3.23-2.75.12-.22.36-.16.46,0,.1.18.07.69-.34,1.3-.92,1.36-2.56,2.11-4.27,2.17-1.4.04-2.75-.26-3.57-1.48-.58-.89-.51-2.19.31-2.75.29-.2.48-.12.51.2.02.16.02.32.05.47.99-1.11,2.08-2.39,2.78-3.4ZM66.44,121.94c.36,1.15,1.06,1.96,1.86,1.76,1.11-.28.75-3.38.65-4.96-.7,1.05-1.59,2.13-2.51,3.2Z" fill="#7b999e" stroke-width="0" />
    <path d="M72.62,121.53c.6-1.44,2.2-3.77,3.09-4.8.22-.24.39-.3.58-.12.36.32.55,1.17-.02,2.15-.51.87-1.52,2.21-2.03,3.2-.58,1.15-.53,1.92.24,1.88,1.09-.04,2.41-1.34,3.14-2.71.12-.18.29-.16.39,0,.19.32.12.73-.17,1.23-.72,1.23-2.25,2.06-3.6,2.06-1.83,0-2.29-1.26-1.62-2.88ZM78,116.37c-.31.28-.99.22-1.35-.3-.39-.53-.26-1.13.12-1.46.39-.34,1.09-.1,1.4.43.31.51.14,1.05-.17,1.32Z" fill="#7b999e" stroke-width="0" />
    <path d="M84.71,117.58c.51.83-.46,1.88-.94,2.94-.1.24-.19.3-.51.16-.58-.24-.92-.83-.58-1.72.27-.71.99-1.56.65-1.78-.41-.28-2.22.99-3.31,2.79-1.33,2.23-.82,3.87.6,3.89,2.03.02,3.77-1.56,4.75-2.81.12-.16.34-.18.43.02.07.16-.02.65-.43,1.19-.92,1.17-2.82,2.13-4.66,2.15-3.07.04-4.1-2.41-2.53-4.96,1.54-2.49,3.98-3.56,5.19-2.96.65.32,1.04.63,1.33,1.09Z" fill="#7b999e" stroke-width="0" />
    <path d="M93.62,116.49c.22-.26.41-.3.58-.12.36.36.56,1.21-.02,2.19-.53.89-1.74,2.37-2.32,3.42-.6,1.11-.63,1.96.19,1.92.99-.04,2.32-1.38,3.16-2.75.12-.18.29-.2.39-.02s.1.67-.22,1.23c-.63,1.09-2.15,2.17-3.48,2.11-1.3-.06-1.98-.69-1.98-1.62-.77.81-1.86,1.54-3.02,1.54-2.25,0-2.7-2.51-.7-4.9,1.96-2.33,3.86-3.22,5.07-3.22,1.04,0,1.52.65,1.47,1.42.31-.47.6-.89.87-1.21ZM91.68,117.3c-.77-.06-2.53,1.23-3.86,2.98-1.28,1.7-1.59,3.44-.65,3.46.99.02,2.25-1.24,3.48-2.98,1.52-2.17,1.74-3.4,1.04-3.46Z" fill="#7b999e" stroke-width="0" />
    <path d="M96.97,123.82c1.16.08,2.85-1.34,3.79-2.87.17-.26.43-.28.53,0,.12.32.02.75-.24,1.23-.34.59-2.1,2.23-4.03,2.19-1.67-.04-2.56-.99-2-3.12.89-3.44,3.64-7.01,6.11-9.11.36-.32.7-.36,1.04-.1.7.51.84,1.24.55,2.17-.75,2.43-3.45,4.8-5.6,5.95-.96,1.94-1.23,3.58-.14,3.66ZM101.89,113.8c-.31-.16-2.1,2.04-3.77,4.56-.22.32-.41.63-.58.95,3.31-2.19,4.66-5.35,4.35-5.51Z" fill="#7b999e" stroke-width="0" />
    <path d="M115.48,120.09c.6,1.32-.94,2.81-1.96,3.4-1.71,1.01-3.74.99-5.04.42-1.09-.47-2.03-1.7-2.08-3.32-.1-4.19,4.2-7.77,6.9-8.62,1.3-.42,2.49-.49,3.26.06.53.38,1.09.95,1.28,1.44.22.57.15,1.13-.22,1.74-.36.61-.7,1.38-.97,1.96-.07.16-.24.28-.53.12-.55-.3-.94-.91-.58-1.9.39-1.05,1.26-2.17.7-2.65-.68-.59-4.34,1.01-6.52,3.95-2.12,2.88-1.88,5.81-.7,6.6,1.54,1.03,4.1-.3,5.94-3.24.12-.22.39-.22.51.04Z" fill="#7b999e" stroke-width="0" />
    <path d="M124.36,120.13c-.51,1.68-2.03,3.68-3.81,4.17-.87.24-2.08.16-3.04-.87-1.06-1.15-.7-2.87.39-4.45.92-1.34,2.39-2.49,3.84-2.57.75-.04,1.16.14,1.64.67.55.61,1.28.75,1.13,2.17-.02.16-.02.3-.05.45.15,0,.29-.04.48-.04.17,0,.17.1.07.2-.17.16-.41.24-.65.26ZM122.31,119.63c-.51-.32-1.09-1.01-1.11-1.74-.65.45-1.35,1.11-1.86,1.86-1.01,1.5-1.38,3.32-.75,3.75.68.45,2.15-.24,3.33-2.05.36-.55.65-1.11.84-1.58-.17-.06-.31-.14-.46-.24ZM123.13,117.87c-.12-.63-.6-.51-.72.06-.12.53.15,1.11.53,1.4.19-.61.27-1.11.19-1.46Z" fill="#7b999e" stroke-width="0" />
    <path d="M125.86,119.14c-.05-.18-.02-.3.24-.28,1.3.06,3.09-.16,4.2-.16,1.21,0,1.67.45,1.81,1.03.05.18,0,.3-.27.28-1.76-.12-3.11.22-4.22.18-1.13-.04-1.62-.45-1.76-1.05Z" fill="#7b999e" stroke-width="0" />
    <path d="M144.61,120.01c-1.96,2.94-5,5.26-8.28,4.27-1.98-.59-2.75-2.07-2.75-3.7,0-4.21,4.51-7.86,7.24-8.65,1.4-.4,2.61-.18,3.28.4,2.99,1.07,2.32,4.96.51,7.69ZM143.62,112.79c-1.18-.36-4.25.99-6.52,3.87-2.32,2.94-2.37,6.28-.72,6.86,1.59.55,4.44-1.03,6.47-4.07,2.2-3.3,2.1-6.26.77-6.66Z" fill="#7b999e" stroke-width="0" />
    <path d="M154.72,121.15c.14-.28.41-.2.46,0,.05.18.1.69-.31,1.3-.92,1.36-2.56,2.02-4.3,2.11-1.54.08-2.56-.1-3.4-.73-.51-.38-.75-.83-.82-1.32-1.13,1.7-2.37,3.71-3.52,5.91-.1.18-.26.22-.41.04-.36-.42-.48-.97-.02-2.17.72-1.92,4.78-8.18,6.3-9.84.24-.26.46-.22.58.02.12.26.17.55.15.89,1.06-.75,2.49-1.3,3.52-.42,1.16,1.01.63,2.77-.27,4.39-.72,1.3-1.62,2.25-2.54,2.71,2.37-.12,3.81-1.54,4.59-2.88ZM147.65,123.43c.77.51,2.34-.93,3.48-2.83.94-1.58,1.21-3.22.6-3.46-.58-.24-2.08.75-3.21,2.27-.27.36-.53.71-.82,1.13-.6,1.25-.72,2.43-.05,2.89Z" fill="#7b999e" stroke-width="0" />
    <path d="M21.95,89.07h.79v8.77h-.79c-.22-1-.62-1.88-1.2-2.64-2.2,2.49-5.01,3.73-8.44,3.73-3.62,0-6.57-1.14-8.87-3.43-2.3-2.29-3.44-5.32-3.44-9.08,0-2.47.53-4.8,1.59-6.99s2.54-3.81,4.43-4.86c1.89-1.06,3.97-1.59,6.24-1.59,1.87,0,3.56.38,5.09,1.15,1.52.77,2.65,1.62,3.4,2.56.53-1.05.85-2.13.96-3.25h.81l.22,9.49h-.79c-.55-3.37-1.68-5.72-3.39-7.03-1.7-1.32-3.63-1.98-5.77-1.98-2.62,0-4.7,1.06-6.25,3.19s-2.32,5.17-2.32,9.14c0,3.75.84,6.63,2.53,8.63s3.78,3,6.29,3c1.34,0,2.71-.33,4.12-.98s2.51-1.76,3.33-3.31,1.3-3.06,1.45-4.51Z" fill="#263333" stroke-width="0" />
    <path d="M26.63,90.88c0-2.31.78-4.25,2.33-5.81s3.46-2.33,5.72-2.33,4.19.78,5.74,2.34c1.55,1.56,2.33,3.49,2.33,5.8,0,2.55-.79,4.55-2.36,6.01-1.57,1.46-3.47,2.19-5.7,2.19s-4.12-.74-5.69-2.22c-1.57-1.48-2.35-3.47-2.35-5.97ZM29.7,90.98c0,2.68.44,4.56,1.31,5.64.87,1.08,2.1,1.62,3.67,1.62s2.85-.54,3.7-1.62,1.28-2.96,1.28-5.64-.42-4.55-1.27-5.69c-.85-1.13-2.09-1.7-3.71-1.7s-2.85.56-3.7,1.69c-.86,1.13-1.28,3.02-1.28,5.69Z" fill="#263333" stroke-width="0" />
    <path d="M50.43,86.6c.42-1.1,1.1-2.01,2.04-2.75s1.86-1.11,2.76-1.11c.81,0,1.45.25,1.92.76.47.5.7,1.02.7,1.55,0,.36-.12.66-.36.92-.24.26-.53.39-.88.39-.62,0-1.08-.46-1.4-1.37-.22-.62-.55-.92-1-.92-.53,0-1.16.36-1.9,1.08-.74.72-1.21,1.47-1.42,2.24-.21.78-.31,1.84-.31,3.19v2.69c0,1.61.02,2.63.06,3.05.04.42.22.74.53.96.31.22.86.33,1.64.33h.52v.85h-8.03v-.85h.39c.74,0,1.26-.1,1.58-.3.31-.2.5-.49.56-.86.06-.37.09-1.43.09-3.17v-4.26c0-1.62-.02-2.64-.06-3.05s-.22-.73-.53-.96c-.31-.23-.86-.34-1.64-.34h-.39v-.83c1.16-.14,2.67-.5,4.54-1.09.36.97.55,2.26.59,3.86Z" fill="#263333" stroke-width="0" />
    <path d="M64.14,82.74h.5c.28.76.44,1.8.48,3.12.88-1.05,1.81-1.83,2.79-2.34.97-.52,1.99-.78,3.04-.78,1.21,0,2.19.25,2.96.76.77.5,1.26,1.12,1.48,1.85.22.73.33,1.8.33,3.2v4.73c0,1.75.03,2.81.09,3.19.06.38.26.67.58.86.32.19.93.29,1.8.29v.85h-7.73v-.85h.35c.88,0,1.46-.13,1.73-.39.27-.26.42-.56.46-.9.04-.34.06-1.36.06-3.05v-4.87c0-1.19-.06-2.05-.18-2.56s-.43-.96-.94-1.36c-.51-.39-1.16-.59-1.95-.59-.9,0-1.76.27-2.57.8s-1.59,1.34-2.32,2.41v6.17c0,1.75.03,2.81.1,3.19.07.38.26.67.59.86.33.19.93.29,1.82.29v.85h-7.64v-.85c.85,0,1.44-.09,1.77-.26s.54-.43.62-.78c.08-.35.12-1.45.12-3.29v-4.5c0-1.76-.04-2.83-.1-3.2-.07-.38-.27-.66-.59-.85s-.93-.29-1.82-.29v-.85c1.35-.15,2.74-.43,4.15-.85Z" fill="#263333" stroke-width="0" />
    <path d="M94.12,88.47h-10.54c-.05.73-.07,1.27-.07,1.62,0,2.66.42,4.65,1.25,5.99s2.07,2,3.72,2c2.24,0,3.83-1,4.76-3.01h.88c-.39,1.25-1.18,2.24-2.34,2.94-1.17.71-2.44,1.06-3.82,1.06-1.28,0-2.49-.32-3.63-.97-1.14-.65-2.07-1.56-2.8-2.74-.73-1.18-1.09-2.61-1.09-4.3,0-2.39.7-4.37,2.11-5.95s3.16-2.37,5.26-2.37c1.98,0,3.51.6,4.6,1.81,1.08,1.21,1.66,2.51,1.72,3.91ZM90.88,87.73c.04-.28.06-.54.06-.76,0-1.08-.32-1.92-.95-2.52-.63-.6-1.41-.9-2.33-.9-2.24,0-3.58,1.39-4.01,4.17h7.23Z" fill="#263333" stroke-width="0" />
    <path d="M101.85,86.6c.42-1.1,1.1-2.01,2.04-2.75s1.86-1.11,2.76-1.11c.81,0,1.45.25,1.92.76.47.5.7,1.02.7,1.55,0,.36-.12.66-.36.92-.24.26-.53.39-.88.39-.62,0-1.08-.46-1.4-1.37-.22-.62-.55-.92-1-.92-.53,0-1.16.36-1.9,1.08-.74.72-1.21,1.47-1.42,2.24s-.31,1.84-.31,3.19v2.69c0,1.61.02,2.63.06,3.05.04.42.22.74.53.96.31.22.86.33,1.64.33h.52v.85h-8.03v-.85h.39c.74,0,1.26-.1,1.58-.3.31-.2.5-.49.56-.86.06-.37.09-1.43.09-3.17v-4.26c0-1.62-.02-2.64-.07-3.05s-.22-.73-.53-.96c-.31-.23-.86-.34-1.64-.34h-.39v-.83c1.16-.14,2.67-.5,4.54-1.09.36.97.55,2.26.59,3.86Z" fill="#263333" stroke-width="0" />
    <path d="M111.24,98.95v-4.97h.72c.84,2.87,2.33,4.3,4.48,4.3.94,0,1.63-.28,2.1-.85.46-.57.69-1.19.69-1.86,0-.79-.25-1.43-.74-1.94-.5-.5-1.48-1.11-2.93-1.83-1.53-.75-2.62-1.49-3.29-2.21-.66-.71-1-1.59-1-2.64s.36-1.95,1.07-2.85c.71-.9,1.72-1.36,3.01-1.36s2.4.54,3.27,1.61c.19-.18.43-.63.72-1.35h.68v4.67h-.68c-.25-1.12-.72-2.08-1.43-2.89-.71-.81-1.54-1.21-2.5-1.21-.74,0-1.34.23-1.79.68-.46.46-.68.98-.68,1.59,0,.66.25,1.24.76,1.72.49.49,1.43,1.05,2.82,1.68,2.09.95,3.37,1.87,3.84,2.77.47.91.7,1.78.7,2.62,0,1.32-.43,2.39-1.3,3.21-.87.82-1.96,1.24-3.28,1.24-1.39,0-2.63-.57-3.71-1.72-.33.37-.6.9-.81,1.59h-.72Z" fill="#263333" stroke-width="0" />
    <path d="M132.69,84.2h-4.56v9.14c0,1.4.06,2.35.19,2.83s.38.88.78,1.17.83.44,1.28.44c.89,0,1.65-.5,2.31-1.51l.59.35c-.38.81-.95,1.42-1.69,1.84s-1.5.62-2.26.62c-.88,0-1.66-.26-2.33-.78-.67-.52-1.09-1.14-1.26-1.84-.17-.7-.25-1.93-.25-3.69v-8.56h-2.2v-.85c1.01-.02,1.91-.45,2.71-1.27.8-.82,1.31-1.98,1.53-3.47h.59v4.74h4.56v.85Z" fill="#263333" stroke-width="0" />
    <path d="M134.74,90.88c0-2.31.78-4.25,2.33-5.81s3.46-2.33,5.72-2.33,4.19.78,5.74,2.34c1.55,1.56,2.33,3.49,2.33,5.8,0,2.55-.79,4.55-2.36,6.01-1.58,1.46-3.48,2.19-5.7,2.19s-4.12-.74-5.7-2.22c-1.57-1.48-2.35-3.47-2.35-5.97ZM137.8,90.98c0,2.68.44,4.56,1.31,5.64s2.1,1.62,3.67,1.62,2.85-.54,3.7-1.62c.85-1.08,1.28-2.96,1.28-5.64s-.42-4.55-1.27-5.69c-.85-1.13-2.09-1.7-3.71-1.7s-2.85.56-3.7,1.69-1.28,3.02-1.28,5.69Z" fill="#263333" stroke-width="0" />
    <path d="M157.44,82.74h.5c.28.76.44,1.8.48,3.12.89-1.05,1.81-1.83,2.79-2.34.97-.52,1.99-.78,3.04-.78,1.21,0,2.19.25,2.96.76.77.5,1.27,1.12,1.49,1.85.22.73.33,1.8.33,3.2v4.73c0,1.75.03,2.81.09,3.19.06.38.26.67.58.86.33.19.93.29,1.8.29v.85h-7.73v-.85h.35c.89,0,1.46-.13,1.74-.39.27-.26.42-.56.46-.9.04-.34.05-1.36.05-3.05v-4.87c0-1.19-.06-2.05-.18-2.56s-.43-.96-.94-1.36c-.51-.39-1.16-.59-1.95-.59-.9,0-1.76.27-2.57.8s-1.59,1.34-2.32,2.41v6.17c0,1.75.03,2.81.1,3.19.07.38.27.67.59.86.32.19.93.29,1.82.29v.85h-7.64v-.85c.85,0,1.44-.09,1.77-.26s.54-.43.62-.78c.08-.35.12-1.45.12-3.29v-4.5c0-1.76-.03-2.83-.1-3.2s-.26-.66-.59-.85-.93-.29-1.82-.29v-.85c1.35-.15,2.74-.43,4.15-.85Z" fill="#263333" stroke-width="0" />
    <path d="M187.42,88.47h-10.54c-.05.73-.07,1.27-.07,1.62,0,2.66.41,4.65,1.25,5.99.83,1.33,2.07,2,3.72,2,2.24,0,3.83-1,4.76-3.01h.89c-.39,1.25-1.18,2.24-2.35,2.94-1.17.71-2.44,1.06-3.82,1.06-1.28,0-2.49-.32-3.63-.97s-2.07-1.56-2.8-2.74c-.72-1.18-1.09-2.61-1.09-4.3,0-2.39.7-4.37,2.1-5.95s3.16-2.37,5.26-2.37c1.98,0,3.51.6,4.6,1.81,1.08,1.21,1.65,2.51,1.72,3.91ZM184.19,87.73c.04-.28.05-.54.05-.76,0-1.08-.32-1.92-.95-2.52-.63-.6-1.41-.9-2.33-.9-2.24,0-3.57,1.39-4.01,4.17h7.24Z" fill="#263333" stroke-width="0" />
    <path d="M118.41,14.58s.09.02.11.03c.04.02.11.08.11.2v27.79c0,.08-.04.16-.11.2l-24.07,13.89h0c-.1.06-.18.02-.22,0-.04-.02-.11-.08-.11-.2v-27.78c0-.08.04-.16.11-.2l24.06-13.89s.08-.03.11-.03Z" fill="#b0cbcf" stroke-width="0" />
    <path d="M68.48,14.91c0-.15.1-.22.14-.24.03-.02.08-.04.14-.04.04,0,.09,0,.14.04l23.95,13.83c.09.05.14.14.14.24v27.65c0,.15-.1.22-.14.24-.04.02-.15.07-.28,0h0s-23.95-13.83-23.95-13.83c-.09-.05-.14-.14-.14-.24V14.91Z" fill="#b0cbcf" stroke-width="0" />
    <path d="M87.99,44.66c-.09,0-.19-.02-.28-.08l-14.55-8.4c-.27-.16-.36-.5-.21-.77s.5-.36.77-.21l14.55,8.4c.27.16.36.5.21.77-.1.18-.29.28-.49.28Z" fill="#7b999e" stroke-width="0" />
    <path d="M87.99,40.85c-.09,0-.19-.02-.28-.08l-14.55-8.4c-.27-.16-.36-.5-.21-.77.16-.27.5-.36.77-.21l14.55,8.4c.27.16.36.5.21.77-.1.18-.29.28-.49.28Z" fill="#7b999e" stroke-width="0" />
    <path d="M87.99,48.47c-.09,0-.19-.02-.28-.08l-14.55-8.4c-.27-.16-.36-.5-.21-.77.16-.27.5-.36.77-.21l14.55,8.4c.27.16.36.5.21.77-.1.18-.29.28-.49.28Z" fill="#7b999e" stroke-width="0" />
    <path d="M87.99,37.03c-.09,0-.19-.02-.28-.08l-14.55-8.4c-.27-.16-.36-.5-.21-.77.16-.27.5-.36.77-.21l14.55,8.4c.27.16.36.5.21.77-.1.18-.29.28-.49.28Z" fill="#7b999e" stroke-width="0" />
    <path d="M87.99,33.22c-.09,0-.19-.02-.28-.08l-14.55-8.4c-.27-.16-.36-.5-.21-.77.16-.27.5-.36.77-.21l14.55,8.4c.27.16.36.5.21.77-.1.18-.29.28-.49.28Z" fill="#7b999e" stroke-width="0" />
    <path d="M99.08,44.66c-.2,0-.38-.1-.49-.28-.16-.27-.06-.61.21-.77l14.55-8.4c.27-.16.62-.06.77.21.16.27.06.61-.21.77l-14.55,8.4c-.09.05-.19.08-.28.08Z" fill="#7b999e" stroke-width="0" />
    <path d="M99.08,40.85c-.2,0-.38-.1-.49-.28-.16-.27-.06-.61.21-.77l14.55-8.4c.27-.16.62-.06.77.21.16.27.06.61-.21.77l-14.55,8.4c-.09.05-.19.08-.28.08Z" fill="#7b999e" stroke-width="0" />
    <path d="M99.08,48.47c-.2,0-.38-.1-.49-.28-.16-.27-.06-.61.21-.77l14.55-8.4c.27-.16.62-.06.77.21.16.27.06.61-.21.77l-14.55,8.4c-.09.05-.19.08-.28.08Z" fill="#7b999e" stroke-width="0" />
    <path d="M99.08,37.03c-.2,0-.38-.1-.49-.28-.16-.27-.06-.61.21-.77l14.55-8.4c.27-.16.62-.06.77.21.16.27.06.61-.21.77l-14.55,8.4c-.09.05-.19.08-.28.08Z" fill="#7b999e" stroke-width="0" />
    <path d="M99.08,33.22c-.2,0-.38-.1-.49-.28-.16-.27-.06-.61.21-.77l14.55-8.4c.27-.16.62-.06.77.21.16.27.06.61-.21.77l-14.55,8.4c-.09.05-.19.08-.28.08Z" fill="#7b999e" stroke-width="0" />
    <path d="M123.52,47.37v-22.44l1.88-.24s.06,0,.09,0c.17,0,.32.06.45.17.15.13.23.32.23.52v27.07c0,.35-.26.64-.6.68l-26.23,3.4,22.93-7.41c.75-.26,1.25-.96,1.25-1.75Z" fill="#7b999e" stroke-width="0" />
    <path d="M119.09,43.77c.42-.24.68-.69.68-1.17v-22.8l1.68-.58c.08-.03.16-.04.24-.04.15,0,.29.05.42.13.19.14.3.35.3.59v27.47c0,.31-.2.58-.48.68l-23.31,7.53,20.47-11.81Z" fill="#7b999e" stroke-width="0" />
    <path d="M93.23.05c.11-.06.24-.06.34,0l23.86,13.77-23.76,13.72s-.08.06-.12.09c-.05-.03-.09-.08-.14-.1l-23.88-13.79L93.23.05Z" fill="#daedf0" stroke-width="0" />
    <path d="M64.71,19.9c0-.24.11-.45.3-.59.12-.09.27-.13.42-.13.08,0,.16.01.24.04l1.69.58v22.76c0,.5.27.97.7,1.22l20.46,11.81-23.32-7.54c-.29-.1-.49-.37-.49-.68v-27.47Z" fill="#7b999e" stroke-width="0" />
    <path d="M60.92,25.37c0-.2.08-.38.23-.52s.34-.19.54-.17l1.88.24v22.44c0,.79.5,1.49,1.25,1.75l22.92,7.41-26.23-3.4c-.34-.04-.6-.34-.6-.68v-27.07Z" fill="#7b999e" stroke-width="0" />
    <path d="M57.06,57.12v-27.01c0-.46.37-.83.83-.83h1.91v23.16c0,.91.68,1.68,1.58,1.8l28.54,3.7h-32.02c-.46,0-.83-.37-.83-.83Z" fill="#002428" stroke-width="0" />
    <path d="M129.46,57.12c0,.46-.37.83-.83.83h-31.45l28.54-3.7c.9-.12,1.58-.89,1.58-1.8v-23.16h1.33c.46,0,.83.37.83.83v27.01Z" fill="#002428" stroke-width="0" />
    <polygon points="93.55 58.48 91.5 57.32 91.5 67.46 93.55 66.3 95.59 67.46 95.59 57.32 93.55 58.48" fill="#7b999e" stroke-width="0" />
</svg>